<?xml version="1.0" encoding="utf-8"?>
<mlt LC_NUMERIC="en_US" version="6.13.0" title="Shotcut version 18.12.23" producer="main_bin">
  <profile description="automatic" width="1280" height="720" progressive="1" sample_aspect_num="1" sample_aspect_den="1" display_aspect_num="1280" display_aspect_den="720" frame_rate_num="33570000" frame_rate_den="1119679" colorspace="709"/>
  <producer id="producer0" title="Anonymous Submission" in="00:00:00.000" out="00:00:12.441">
    <property name="length">00:00:12:14</property>
    <property name="eof">pause</property>
    <property name="resource">C:/Users/truong.lathanh/Downloads/NUMX/GiaLai/clip/duong di/20181223_120337_duong di 5.mp4</property>
    <property name="audio_index">1</property>
    <property name="video_index">0</property>
    <property name="mute_on_pause">0</property>
    <property name="mlt_service">avformat-novalidate</property>
    <property name="seekable">1</property>
    <property name="aspect_ratio">1</property>
    <property name="shotcut:hash">7c739e007da6bea894f8449ccacb0e21</property>
    <property name="ignore_points">0</property>
    <property name="global_feed">1</property>
    <property name="xml">was here</property>
  </producer>
  <producer id="producer1" title="Anonymous Submission" in="00:00:00.000" out="03:59:60.003">
    <property name="length">431738</property>
    <property name="eof">pause</property>
    <property name="resource">C:/Users/truong.lathanh/Downloads/NUMX/GiaLai/utils/black.png</property>
    <property name="ttl">1</property>
    <property name="aspect_ratio">1</property>
    <property name="progressive">1</property>
    <property name="seekable">1</property>
    <property name="mlt_service">qimage</property>
    <property name="global_feed">1</property>
    <property name="xml">was here</property>
    <property name="shotcut:hash">b39bb6079691283ecb75ff439d39b34d</property>
  </producer>
  <producer id="producer2" title="Anonymous Submission" in="00:00:00.000" out="03:59:60.003">
    <property name="length">431738</property>
    <property name="eof">pause</property>
    <property name="resource">C:/Users/truong.lathanh/Downloads/NUMX/GiaLai/utils/red.png</property>
    <property name="ttl">1</property>
    <property name="aspect_ratio">1</property>
    <property name="progressive">1</property>
    <property name="seekable">1</property>
    <property name="mlt_service">qimage</property>
    <property name="global_feed">1</property>
    <property name="xml">was here</property>
    <property name="shotcut:hash">0da4291cc3a2c3474103602aaa64189f</property>
  </producer>
  <producer id="producer3" title="Anonymous Submission" in="00:00:00.000" out="00:00:05.937">
    <property name="length">179</property>
    <property name="eof">pause</property>
    <property name="resource">C:/Users/truong.lathanh/Downloads/NUMX/GiaLai/clip/Chuong trinh chinh/20181221_202319_khien do len xe.mp4</property>
    <property name="audio_index">1</property>
    <property name="video_index">0</property>
    <property name="mute_on_pause">0</property>
    <property name="mlt_service">avformat-novalidate</property>
    <property name="seekable">1</property>
    <property name="aspect_ratio">1</property>
    <property name="global_feed">1</property>
    <property name="xml">was here</property>
    <property name="shotcut:hash">cf9ea3e67e3b9f72e5db59c4e638e244</property>
  </producer>
  <producer id="producer4" title="Anonymous Submission" in="00:00:00.000" out="00:00:03.736">
    <property name="length">113</property>
    <property name="eof">pause</property>
    <property name="resource">C:/Users/truong.lathanh/Downloads/NUMX/GiaLai/clip/Chuong trinh chinh/20181221_204329_hop truoc khi len.mp4</property>
    <property name="audio_index">1</property>
    <property name="video_index">0</property>
    <property name="mute_on_pause">0</property>
    <property name="mlt_service">avformat-novalidate</property>
    <property name="seekable">1</property>
    <property name="aspect_ratio">1</property>
    <property name="global_feed">1</property>
    <property name="xml">was here</property>
    <property name="shotcut:hash">10b0571bbfe6d3fcb28e4b551ee80669</property>
  </producer>
  <producer id="producer5" title="Anonymous Submission" in="00:00:00.000" out="00:00:02.568">
    <property name="length">78</property>
    <property name="eof">pause</property>
    <property name="resource">C:/Users/truong.lathanh/Downloads/NUMX/GiaLai/clip/duong di/20181222_064009_duong di 3 - intro.mp4</property>
    <property name="audio_index">1</property>
    <property name="video_index">0</property>
    <property name="mute_on_pause">0</property>
    <property name="mlt_service">avformat-novalidate</property>
    <property name="seekable">1</property>
    <property name="aspect_ratio">1</property>
    <property name="global_feed">1</property>
    <property name="xml">was here</property>
    <property name="shotcut:hash">356195cc0cb6f9ee237b92396ffe27f2</property>
  </producer>
  <producer id="producer6" title="Anonymous Submission" in="00:00:00.000" out="00:00:08.205">
    <property name="length">247</property>
    <property name="eof">pause</property>
    <property name="resource">C:/Users/truong.lathanh/Downloads/NUMX/GiaLai/clip/Chuong trinh chinh/20181222_073655_dừng xe ăn sáng 6.mp4</property>
    <property name="audio_index">1</property>
    <property name="video_index">0</property>
    <property name="mute_on_pause">0</property>
    <property name="mlt_service">avformat-novalidate</property>
    <property name="seekable">1</property>
    <property name="aspect_ratio">1</property>
    <property name="global_feed">1</property>
    <property name="xml">was here</property>
    <property name="shotcut:hash">16ad328e56a1ca8aa3fe003ac55eec60</property>
  </producer>
  <producer id="producer7" title="Anonymous Submission" in="00:00:00.000" out="00:00:28.050">
    <property name="length">842</property>
    <property name="eof">pause</property>
    <property name="resource">C:/Users/truong.lathanh/Downloads/NUMX/GiaLai/clip/Chuong trinh chinh/20181222_071420_dừng xe ăn sáng 1.mp4</property>
    <property name="audio_index">1</property>
    <property name="video_index">0</property>
    <property name="mute_on_pause">0</property>
    <property name="mlt_service">avformat-novalidate</property>
    <property name="seekable">1</property>
    <property name="aspect_ratio">1</property>
    <property name="global_feed">1</property>
    <property name="xml">was here</property>
    <property name="shotcut:hash">06555db1e2c541d0663e4fd9fe14afd8</property>
  </producer>
  <producer id="producer8" title="Anonymous Submission" in="00:00:00.000" out="00:00:09.239">
    <property name="length">278</property>
    <property name="eof">pause</property>
    <property name="resource">C:/Users/truong.lathanh/Downloads/NUMX/GiaLai/clip/Chuong trinh chinh/20181222_072556_dừng xe ăn sáng 3.mp4</property>
    <property name="audio_index">1</property>
    <property name="video_index">0</property>
    <property name="mute_on_pause">0</property>
    <property name="mlt_service">avformat-novalidate</property>
    <property name="seekable">1</property>
    <property name="aspect_ratio">1</property>
    <property name="global_feed">1</property>
    <property name="xml">was here</property>
    <property name="shotcut:hash">2f738a54c23e09627cd8e316c7420900</property>
  </producer>
  <producer id="producer9" title="Anonymous Submission" in="00:00:00.000" out="00:00:05.537">
    <property name="length">167</property>
    <property name="eof">pause</property>
    <property name="resource">C:/Users/truong.lathanh/Downloads/NUMX/GiaLai/clip/Chuong trinh chinh/20181222_072736_dừng xe ăn sáng 4.mp4</property>
    <property name="audio_index">1</property>
    <property name="video_index">0</property>
    <property name="mute_on_pause">0</property>
    <property name="mlt_service">avformat-novalidate</property>
    <property name="seekable">1</property>
    <property name="aspect_ratio">1</property>
    <property name="global_feed">1</property>
    <property name="xml">was here</property>
    <property name="shotcut:hash">281ae2bf5003e1c70629f2ad8c33111c</property>
  </producer>
  <producer id="producer10" title="Anonymous Submission" in="00:00:00.000" out="00:00:12.374">
    <property name="length">372</property>
    <property name="eof">pause</property>
    <property name="resource">C:/Users/truong.lathanh/Downloads/NUMX/GiaLai/clip/Chuong trinh chinh/20181222_075435_duong di sau an sang.mp4</property>
    <property name="audio_index">1</property>
    <property name="video_index">0</property>
    <property name="mute_on_pause">0</property>
    <property name="mlt_service">avformat-novalidate</property>
    <property name="seekable">1</property>
    <property name="aspect_ratio">1</property>
    <property name="global_feed">1</property>
    <property name="xml">was here</property>
    <property name="shotcut:hash">c0bad4daf5c90813b1be1ea38375c4c5</property>
  </producer>
  <producer id="producer11" title="Anonymous Submission" in="00:00:00.000" out="03:59:60.003">
    <property name="length">431738</property>
    <property name="eof">pause</property>
    <property name="resource">C:/Users/truong.lathanh/Downloads/NUMX/GiaLai/clip/Chuong trinh chinh/_UAN0050.JPG</property>
    <property name="ttl">1</property>
    <property name="aspect_ratio">1</property>
    <property name="progressive">1</property>
    <property name="seekable">1</property>
    <property name="mlt_service">qimage</property>
    <property name="global_feed">1</property>
    <property name="xml">was here</property>
    <property name="shotcut:hash">442c64543d1bff36923682e8439b996b</property>
  </producer>
  <producer id="producer12" title="Anonymous Submission" in="00:00:00.000" out="03:59:60.003">
    <property name="length">431738</property>
    <property name="eof">pause</property>
    <property name="resource">C:/Users/truong.lathanh/Downloads/NUMX/GiaLai/clip/van chuyen do/_UAN0090.JPG</property>
    <property name="ttl">1</property>
    <property name="aspect_ratio">1</property>
    <property name="progressive">1</property>
    <property name="seekable">1</property>
    <property name="mlt_service">qimage</property>
    <property name="global_feed">1</property>
    <property name="xml">was here</property>
    <property name="shotcut:hash">ad204d6589d77e0235b85901e6f1b9ac</property>
  </producer>
  <producer id="producer13" title="Anonymous Submission" in="00:00:00.000" out="03:59:60.003">
    <property name="length">431738</property>
    <property name="eof">pause</property>
    <property name="resource">C:/Users/truong.lathanh/Downloads/NUMX/GiaLai/clip/van chuyen do/_UAN0125.JPG</property>
    <property name="ttl">1</property>
    <property name="aspect_ratio">1</property>
    <property name="progressive">1</property>
    <property name="seekable">1</property>
    <property name="mlt_service">qimage</property>
    <property name="global_feed">1</property>
    <property name="xml">was here</property>
    <property name="shotcut:hash">0c821169ebf1e3ca96ae0ca596eb66e6</property>
  </producer>
  <producer id="producer14" title="Anonymous Submission" in="00:00:00.000" out="03:59:60.003">
    <property name="length">431738</property>
    <property name="eof">pause</property>
    <property name="resource">C:/Users/truong.lathanh/Downloads/NUMX/GiaLai/clip/van chuyen do/_UAN0126.JPG</property>
    <property name="ttl">1</property>
    <property name="aspect_ratio">1</property>
    <property name="progressive">1</property>
    <property name="seekable">1</property>
    <property name="mlt_service">qimage</property>
    <property name="global_feed">1</property>
    <property name="xml">was here</property>
    <property name="shotcut:hash">42954298a00ade6444f327700b67503a</property>
  </producer>
  <producer id="producer15" title="Anonymous Submission" in="00:00:00.000" out="03:59:60.003">
    <property name="length">431738</property>
    <property name="eof">pause</property>
    <property name="resource">C:/Users/truong.lathanh/Downloads/NUMX/GiaLai/clip/van chuyen do/_UAN0134.JPG</property>
    <property name="ttl">1</property>
    <property name="aspect_ratio">1</property>
    <property name="progressive">1</property>
    <property name="seekable">1</property>
    <property name="mlt_service">qimage</property>
    <property name="global_feed">1</property>
    <property name="xml">was here</property>
    <property name="shotcut:hash">d8ab1cce98ac477d651693eb757ed395</property>
  </producer>
  <producer id="producer16" title="Anonymous Submission" in="00:00:00.000" out="03:59:60.003">
    <property name="length">431738</property>
    <property name="eof">pause</property>
    <property name="resource">C:/Users/truong.lathanh/Downloads/NUMX/GiaLai/clip/van chuyen do/_UAN0139.JPG</property>
    <property name="ttl">1</property>
    <property name="aspect_ratio">1</property>
    <property name="progressive">1</property>
    <property name="seekable">1</property>
    <property name="mlt_service">qimage</property>
    <property name="global_feed">1</property>
    <property name="xml">was here</property>
    <property name="shotcut:hash">427355dc57857fb30d6e25949ebbb83c</property>
  </producer>
  <producer id="producer17" title="Anonymous Submission" in="00:00:00.000" out="00:00:06.270">
    <property name="length">189</property>
    <property name="eof">pause</property>
    <property name="resource">C:/Users/truong.lathanh/Downloads/NUMX/GiaLai/clip/Chuong trinh chinh/20181222_111452_bao quat 1.mp4</property>
    <property name="audio_index">1</property>
    <property name="video_index">0</property>
    <property name="mute_on_pause">0</property>
    <property name="mlt_service">avformat-novalidate</property>
    <property name="seekable">1</property>
    <property name="aspect_ratio">1</property>
    <property name="global_feed">1</property>
    <property name="xml">was here</property>
    <property name="shotcut:hash">8cba18f30303698952227a053860d2d8</property>
  </producer>
  <producer id="producer18" title="Anonymous Submission" in="00:00:00.000" out="00:00:02.902">
    <property name="length">88</property>
    <property name="eof">pause</property>
    <property name="resource">C:/Users/truong.lathanh/Downloads/NUMX/GiaLai/clip/Chuong trinh chinh/20181222_122537_chup hinh 1.mp4</property>
    <property name="audio_index">1</property>
    <property name="video_index">0</property>
    <property name="mute_on_pause">0</property>
    <property name="mlt_service">avformat-novalidate</property>
    <property name="seekable">1</property>
    <property name="aspect_ratio">1</property>
    <property name="global_feed">1</property>
    <property name="xml">was here</property>
    <property name="shotcut:hash">7106461748d869b2f61535c6748e4737</property>
  </producer>
  <producer id="producer19" title="Anonymous Submission" in="00:00:00.000" out="03:59:60.003">
    <property name="length">431738</property>
    <property name="eof">pause</property>
    <property name="resource">C:/Users/truong.lathanh/Downloads/NUMX/GiaLai/clip/Hinh cac be/_MG_7778.JPG</property>
    <property name="ttl">1</property>
    <property name="aspect_ratio">1</property>
    <property name="progressive">1</property>
    <property name="seekable">1</property>
    <property name="mlt_service">qimage</property>
    <property name="global_feed">1</property>
    <property name="xml">was here</property>
    <property name="shotcut:hash">7fe2c20a3316b05f5d0610e940c21e04</property>
  </producer>
  <producer id="producer20" title="Anonymous Submission" in="00:00:00.000" out="03:59:60.003">
    <property name="length">431738</property>
    <property name="eof">pause</property>
    <property name="resource">C:/Users/truong.lathanh/Downloads/NUMX/GiaLai/clip/Hinh cac be/_MG_7868.JPG</property>
    <property name="ttl">1</property>
    <property name="aspect_ratio">1</property>
    <property name="progressive">1</property>
    <property name="seekable">1</property>
    <property name="mlt_service">qimage</property>
    <property name="global_feed">1</property>
    <property name="xml">was here</property>
    <property name="shotcut:hash">a45681316039f38f667803fcdb929396</property>
  </producer>
  <producer id="producer21" title="Anonymous Submission" in="00:00:00.000" out="03:59:60.003">
    <property name="length">431738</property>
    <property name="eof">pause</property>
    <property name="resource">C:/Users/truong.lathanh/Downloads/NUMX/GiaLai/clip/Hinh cac be/45 001.JPG</property>
    <property name="ttl">1</property>
    <property name="aspect_ratio">1</property>
    <property name="progressive">1</property>
    <property name="seekable">1</property>
    <property name="mlt_service">qimage</property>
    <property name="global_feed">1</property>
    <property name="xml">was here</property>
    <property name="shotcut:hash">6960a79fff84b7969f94b8aa30dfb956</property>
  </producer>
  <producer id="producer22" title="Anonymous Submission" in="00:00:00.000" out="03:59:60.003">
    <property name="length">431738</property>
    <property name="eof">pause</property>
    <property name="resource">C:/Users/truong.lathanh/Downloads/NUMX/GiaLai/clip/Hinh cac be/_MG_8475.JPG</property>
    <property name="ttl">1</property>
    <property name="aspect_ratio">1</property>
    <property name="progressive">1</property>
    <property name="seekable">1</property>
    <property name="mlt_service">qimage</property>
    <property name="global_feed">1</property>
    <property name="xml">was here</property>
    <property name="shotcut:hash">0a45d2ae55dbe9b2b875ef341e462273</property>
  </producer>
  <producer id="producer23" title="Anonymous Submission" in="00:00:00.000" out="00:00:03.069">
    <property name="length">93</property>
    <property name="eof">pause</property>
    <property name="resource">C:/Users/truong.lathanh/Downloads/NUMX/GiaLai/clip/Chuong trinh chinh/20181222_121957_tro choi 2.mp4</property>
    <property name="audio_index">1</property>
    <property name="video_index">0</property>
    <property name="mute_on_pause">0</property>
    <property name="mlt_service">avformat-novalidate</property>
    <property name="seekable">1</property>
    <property name="aspect_ratio">1</property>
    <property name="global_feed">1</property>
    <property name="xml">was here</property>
    <property name="shotcut:hash">d292e3099d003d49c170a793a9eaa279</property>
  </producer>
  <producer id="producer24" title="Anonymous Submission" in="00:00:00.000" out="00:00:02.935">
    <property name="length">89</property>
    <property name="eof">pause</property>
    <property name="resource">C:/Users/truong.lathanh/Downloads/NUMX/GiaLai/clip/Chuong trinh chinh/20181222_122012_tro choi 3.mp4</property>
    <property name="audio_index">1</property>
    <property name="video_index">0</property>
    <property name="mute_on_pause">0</property>
    <property name="mlt_service">avformat-novalidate</property>
    <property name="seekable">1</property>
    <property name="aspect_ratio">1</property>
    <property name="global_feed">1</property>
    <property name="xml">was here</property>
    <property name="shotcut:hash">04aa6710f6e3d458efeab7bf245862bd</property>
  </producer>
  <producer id="producer25" title="Anonymous Submission" in="00:00:00.000" out="03:59:60.003">
    <property name="length">431738</property>
    <property name="eof">pause</property>
    <property name="resource">C:/Users/truong.lathanh/Downloads/NUMX/GiaLai/clip/Hinh cac be/_MG_7897.JPG</property>
    <property name="ttl">1</property>
    <property name="aspect_ratio">1</property>
    <property name="progressive">1</property>
    <property name="seekable">1</property>
    <property name="mlt_service">qimage</property>
    <property name="global_feed">1</property>
    <property name="xml">was here</property>
    <property name="shotcut:hash">653dea16fed778b69fb7b34d0a3a96a9</property>
  </producer>
  <producer id="producer26" title="Anonymous Submission" in="00:00:00.000" out="03:59:60.003">
    <property name="length">431738</property>
    <property name="eof">pause</property>
    <property name="resource">C:/Users/truong.lathanh/Downloads/NUMX/GiaLai/clip/Hinh cac be/45 195.JPG</property>
    <property name="ttl">1</property>
    <property name="aspect_ratio">1</property>
    <property name="progressive">1</property>
    <property name="seekable">1</property>
    <property name="mlt_service">qimage</property>
    <property name="global_feed">1</property>
    <property name="xml">was here</property>
    <property name="shotcut:hash">dc1b94560367edd0a75740376077d6e2</property>
  </producer>
  <producer id="producer27" title="Anonymous Submission" in="00:00:00.000" out="03:59:60.003">
    <property name="length">431738</property>
    <property name="eof">pause</property>
    <property name="resource">C:/Users/truong.lathanh/Downloads/NUMX/GiaLai/clip/Hinh cac be/_MG_7813.JPG</property>
    <property name="ttl">1</property>
    <property name="aspect_ratio">1</property>
    <property name="progressive">1</property>
    <property name="seekable">1</property>
    <property name="mlt_service">qimage</property>
    <property name="global_feed">1</property>
    <property name="xml">was here</property>
    <property name="shotcut:hash">dcc2a8bcf9689f19c58b7cac26855a96</property>
  </producer>
  <producer id="producer28" title="Anonymous Submission" in="00:00:00.000" out="00:00:18.211">
    <property name="length">547</property>
    <property name="eof">pause</property>
    <property name="resource">C:/Users/truong.lathanh/Downloads/NUMX/GiaLai/clip/Chuong trinh chinh/20181222_114836_phan qua 2 - tro choi 1.mp4</property>
    <property name="audio_index">1</property>
    <property name="video_index">0</property>
    <property name="mute_on_pause">0</property>
    <property name="mlt_service">avformat-novalidate</property>
    <property name="seekable">1</property>
    <property name="aspect_ratio">1</property>
    <property name="global_feed">1</property>
    <property name="xml">was here</property>
    <property name="shotcut:hash">853ea170eebdf32fec62d40b3f414271</property>
  </producer>
  <producer id="producer29" title="Anonymous Submission" in="00:00:00.000" out="03:59:60.003">
    <property name="length">431738</property>
    <property name="eof">pause</property>
    <property name="resource">C:/Users/truong.lathanh/Downloads/NUMX/GiaLai/clip/Hinh cac be/45 037.JPG</property>
    <property name="ttl">1</property>
    <property name="aspect_ratio">1</property>
    <property name="progressive">1</property>
    <property name="seekable">1</property>
    <property name="mlt_service">qimage</property>
    <property name="global_feed">1</property>
    <property name="xml">was here</property>
    <property name="shotcut:hash">78b3bb3baeede58a3add5defd53a0985</property>
  </producer>
  <producer id="producer30" title="Anonymous Submission" in="00:00:00.000" out="03:59:60.003">
    <property name="length">431738</property>
    <property name="eof">pause</property>
    <property name="resource">C:/Users/truong.lathanh/Downloads/NUMX/GiaLai/clip/Hinh cac be/45 042.JPG</property>
    <property name="ttl">1</property>
    <property name="aspect_ratio">1</property>
    <property name="progressive">1</property>
    <property name="seekable">1</property>
    <property name="mlt_service">qimage</property>
    <property name="global_feed">1</property>
    <property name="xml">was here</property>
    <property name="shotcut:hash">7a8c8fffb74590b2251aaf6ea0141fd9</property>
  </producer>
  <producer id="producer31" title="Anonymous Submission" in="00:00:00.000" out="03:59:60.003">
    <property name="length">431738</property>
    <property name="eof">pause</property>
    <property name="resource">C:/Users/truong.lathanh/Downloads/NUMX/GiaLai/clip/Hinh cac be/45 055.JPG</property>
    <property name="ttl">1</property>
    <property name="aspect_ratio">1</property>
    <property name="progressive">1</property>
    <property name="seekable">1</property>
    <property name="mlt_service">qimage</property>
    <property name="global_feed">1</property>
    <property name="xml">was here</property>
    <property name="shotcut:hash">b2bfd9c75a7c65ba382fd50092f1b933</property>
  </producer>
  <producer id="producer32" title="Anonymous Submission" in="00:00:00.000" out="03:59:60.003">
    <property name="length">431738</property>
    <property name="eof">pause</property>
    <property name="resource">C:/Users/truong.lathanh/Downloads/NUMX/GiaLai/clip/Hinh cac be/45 057.JPG</property>
    <property name="ttl">1</property>
    <property name="aspect_ratio">1</property>
    <property name="progressive">1</property>
    <property name="seekable">1</property>
    <property name="mlt_service">qimage</property>
    <property name="global_feed">1</property>
    <property name="xml">was here</property>
    <property name="shotcut:hash">362c3af2520964cf6fbe062b44535b6d</property>
  </producer>
  <producer id="producer35" title="Anonymous Submission" in="00:00:00.000" out="03:59:60.003">
    <property name="length">431738</property>
    <property name="eof">pause</property>
    <property name="resource">C:/Users/truong.lathanh/Downloads/NUMX/GiaLai/clip/phan qua/_MG_7797.JPG</property>
    <property name="ttl">1</property>
    <property name="aspect_ratio">1</property>
    <property name="progressive">1</property>
    <property name="seekable">1</property>
    <property name="mlt_service">qimage</property>
    <property name="global_feed">1</property>
    <property name="xml">was here</property>
    <property name="shotcut:hash">8ae86376443f352dfa5a6bb94482b206</property>
  </producer>
  <producer id="producer33" title="Anonymous Submission" in="00:00:00.000" out="00:00:25.049">
    <property name="length">752</property>
    <property name="eof">pause</property>
    <property name="resource">C:/Users/truong.lathanh/Downloads/NUMX/GiaLai/clip/Chuong trinh chinh/20181222_112214_phan qua 1.mp4</property>
    <property name="audio_index">1</property>
    <property name="video_index">0</property>
    <property name="mute_on_pause">0</property>
    <property name="mlt_service">avformat-novalidate</property>
    <property name="seekable">1</property>
    <property name="aspect_ratio">1</property>
    <property name="global_feed">1</property>
    <property name="xml">was here</property>
    <property name="shotcut:hash">21c0cb76c30592894eb0e027aefa9a1e</property>
  </producer>
  <producer id="producer34" title="Anonymous Submission" in="00:00:00.000" out="03:59:60.003">
    <property name="length">431738</property>
    <property name="eof">pause</property>
    <property name="resource">C:/Users/truong.lathanh/Downloads/NUMX/GiaLai/clip/phan qua/_MG_7793.JPG</property>
    <property name="ttl">1</property>
    <property name="aspect_ratio">1</property>
    <property name="progressive">1</property>
    <property name="seekable">1</property>
    <property name="mlt_service">qimage</property>
    <property name="global_feed">1</property>
    <property name="xml">was here</property>
    <property name="shotcut:hash">e8de14285758881aefd9328a813034a7</property>
  </producer>
  <producer id="producer36" title="Anonymous Submission" in="00:00:00.000" out="00:00:07.805">
    <property name="length">235</property>
    <property name="eof">pause</property>
    <property name="resource">C:/Users/truong.lathanh/Downloads/NUMX/GiaLai/clip/Chuong trinh chinh/20181222_122309_phan qua 4.mp4</property>
    <property name="audio_index">1</property>
    <property name="video_index">0</property>
    <property name="mute_on_pause">0</property>
    <property name="mlt_service">avformat-novalidate</property>
    <property name="seekable">1</property>
    <property name="aspect_ratio">1</property>
    <property name="global_feed">1</property>
    <property name="xml">was here</property>
    <property name="shotcut:hash">74ba4bc4c9ff245d9cbd9597a7c72718</property>
  </producer>
  <producer id="producer37" title="Anonymous Submission" in="00:00:00.000" out="03:59:60.003">
    <property name="length">431738</property>
    <property name="eof">pause</property>
    <property name="resource">C:/Users/truong.lathanh/Downloads/NUMX/GiaLai/clip/phan qua/IMG_0607.jpg</property>
    <property name="ttl">1</property>
    <property name="aspect_ratio">1</property>
    <property name="progressive">1</property>
    <property name="seekable">1</property>
    <property name="mlt_service">qimage</property>
    <property name="global_feed">1</property>
    <property name="xml">was here</property>
    <property name="shotcut:hash">42803c28265527b4fa726b4d33476b3c</property>
  </producer>
  <producer id="producer38" title="Anonymous Submission" in="00:00:00.000" out="00:00:03.669">
    <property name="length">111</property>
    <property name="eof">pause</property>
    <property name="resource">C:/Users/truong.lathanh/Downloads/NUMX/GiaLai/clip/Chuong trinh chinh/20181222_154708_tu sach 1.mp4</property>
    <property name="audio_index">1</property>
    <property name="video_index">0</property>
    <property name="mute_on_pause">0</property>
    <property name="mlt_service">avformat-novalidate</property>
    <property name="seekable">1</property>
    <property name="aspect_ratio">1</property>
    <property name="global_feed">1</property>
    <property name="xml">was here</property>
    <property name="shotcut:hash">a4b530e21217d3048d8bac551117df19</property>
  </producer>
  <producer id="producer39" title="Anonymous Submission" in="00:00:00.000" out="03:59:60.003">
    <property name="length">431738</property>
    <property name="eof">pause</property>
    <property name="resource">C:/Users/truong.lathanh/Downloads/NUMX/GiaLai/clip/Chuong trinh chinh/20181222_160118_tu sach 2.jpg</property>
    <property name="ttl">1</property>
    <property name="aspect_ratio">1</property>
    <property name="progressive">1</property>
    <property name="seekable">1</property>
    <property name="mlt_service">qimage</property>
    <property name="global_feed">1</property>
    <property name="xml">was here</property>
    <property name="shotcut:hash">8ef2b3e6132bd88fdd16ddf267bf132c</property>
  </producer>
  <producer id="producer40" title="Anonymous Submission" in="00:00:00.000" out="00:00:04.336">
    <property name="length">131</property>
    <property name="eof">pause</property>
    <property name="resource">C:/Users/truong.lathanh/Downloads/NUMX/GiaLai/clip/Chuong trinh chinh/20181222_114457_hau can 1.mp4</property>
    <property name="audio_index">1</property>
    <property name="video_index">0</property>
    <property name="mute_on_pause">0</property>
    <property name="mlt_service">avformat-novalidate</property>
    <property name="seekable">1</property>
    <property name="aspect_ratio">1</property>
    <property name="global_feed">1</property>
    <property name="xml">was here</property>
    <property name="shotcut:hash">23799972b3266dfa622b552276f138c7</property>
  </producer>
  <producer id="producer41" title="Anonymous Submission" in="00:00:00.000" out="00:00:13.942">
    <property name="length">419</property>
    <property name="eof">pause</property>
    <property name="resource">C:/Users/truong.lathanh/Downloads/NUMX/GiaLai/clip/Chuong trinh chinh/20181222_114633_hau can 4.mp4</property>
    <property name="audio_index">1</property>
    <property name="video_index">0</property>
    <property name="mute_on_pause">0</property>
    <property name="mlt_service">avformat-novalidate</property>
    <property name="seekable">1</property>
    <property name="aspect_ratio">1</property>
    <property name="global_feed">1</property>
    <property name="xml">was here</property>
    <property name="shotcut:hash">51b566cfec794eb3c47ea61c78d7d510</property>
  </producer>
  <producer id="producer42" title="Anonymous Submission" in="00:00:00.000" out="00:00:03.602">
    <property name="length">109</property>
    <property name="eof">pause</property>
    <property name="resource">C:/Users/truong.lathanh/Downloads/NUMX/GiaLai/clip/Chuong trinh chinh/20181222_114608_hau can 3.mp4</property>
    <property name="audio_index">1</property>
    <property name="video_index">0</property>
    <property name="mute_on_pause">0</property>
    <property name="mlt_service">avformat-novalidate</property>
    <property name="seekable">1</property>
    <property name="aspect_ratio">1</property>
    <property name="global_feed">1</property>
    <property name="xml">was here</property>
    <property name="shotcut:hash">dc9801bf3c4f2db9321fd32120f9a570</property>
  </producer>
  <producer id="producer43" title="Anonymous Submission" in="00:00:00.000" out="00:00:20.179">
    <property name="length">606</property>
    <property name="eof">pause</property>
    <property name="resource">C:/Users/truong.lathanh/Downloads/NUMX/GiaLai/clip/Chuong trinh chinh/20181222_114527_hau can 2.mp4</property>
    <property name="audio_index">1</property>
    <property name="video_index">0</property>
    <property name="mute_on_pause">0</property>
    <property name="mlt_service">avformat-novalidate</property>
    <property name="seekable">1</property>
    <property name="aspect_ratio">1</property>
    <property name="global_feed">1</property>
    <property name="xml">was here</property>
    <property name="shotcut:hash">e062998d3bd289800ace7afb48b0b4d5</property>
  </producer>
  <producer id="producer44" title="Anonymous Submission" in="00:00:00.000" out="00:00:03.736">
    <property name="length">113</property>
    <property name="eof">pause</property>
    <property name="resource">C:/Users/truong.lathanh/Downloads/NUMX/GiaLai/clip/Chuong trinh chinh/20181222_114744_hau can 5.mp4</property>
    <property name="audio_index">1</property>
    <property name="video_index">0</property>
    <property name="mute_on_pause">0</property>
    <property name="mlt_service">avformat-novalidate</property>
    <property name="seekable">1</property>
    <property name="aspect_ratio">1</property>
    <property name="global_feed">1</property>
    <property name="xml">was here</property>
    <property name="shotcut:hash">187f0b16795fb215367f11074f121a91</property>
  </producer>
  <producer id="producer45" title="Anonymous Submission" in="00:00:00.000" out="00:00:06.170">
    <property name="length">186</property>
    <property name="eof">pause</property>
    <property name="resource">C:/Users/truong.lathanh/Downloads/NUMX/GiaLai/clip/Chuong trinh chinh/20181222_114810_hau can 6.mp4</property>
    <property name="audio_index">1</property>
    <property name="video_index">0</property>
    <property name="mute_on_pause">0</property>
    <property name="mlt_service">avformat-novalidate</property>
    <property name="seekable">1</property>
    <property name="aspect_ratio">1</property>
    <property name="global_feed">1</property>
    <property name="xml">was here</property>
    <property name="shotcut:hash">e7f8404916bc3cc9ab6d212ac4479e04</property>
  </producer>
  <producer id="producer46" title="Anonymous Submission" in="00:00:00.000" out="03:59:60.003">
    <property name="length">431738</property>
    <property name="eof">pause</property>
    <property name="resource">C:/Users/truong.lathanh/Downloads/NUMX/GiaLai/clip/hau can/45 030.JPG</property>
    <property name="ttl">1</property>
    <property name="aspect_ratio">1</property>
    <property name="progressive">1</property>
    <property name="seekable">1</property>
    <property name="mlt_service">qimage</property>
    <property name="global_feed">1</property>
    <property name="xml">was here</property>
    <property name="shotcut:hash">db1dedeba4200a67b6ed8627a2280442</property>
  </producer>
  <producer id="producer47" title="Anonymous Submission" in="00:00:00.000" out="03:59:60.003">
    <property name="length">431738</property>
    <property name="eof">pause</property>
    <property name="resource">C:/Users/truong.lathanh/Downloads/NUMX/GiaLai/clip/hau can/IMG_0660.jpg</property>
    <property name="ttl">1</property>
    <property name="aspect_ratio">1</property>
    <property name="progressive">1</property>
    <property name="seekable">1</property>
    <property name="mlt_service">qimage</property>
    <property name="global_feed">1</property>
    <property name="xml">was here</property>
    <property name="shotcut:hash">28602c20ebbd4353f56b9c6fb0fd35e2</property>
  </producer>
  <producer id="producer48" title="Anonymous Submission" in="00:00:00.000" out="03:59:60.003">
    <property name="length">431738</property>
    <property name="eof">pause</property>
    <property name="resource">C:/Users/truong.lathanh/Downloads/NUMX/GiaLai/clip/hau can/_UAN0527.JPG</property>
    <property name="ttl">1</property>
    <property name="aspect_ratio">1</property>
    <property name="progressive">1</property>
    <property name="seekable">1</property>
    <property name="mlt_service">qimage</property>
    <property name="global_feed">1</property>
    <property name="xml">was here</property>
    <property name="shotcut:hash">942f6e66a206c9409d30f8c46fd1192f</property>
  </producer>
  <producer id="producer49" title="Anonymous Submission" in="00:00:00.000" out="03:59:60.003">
    <property name="length">431738</property>
    <property name="eof">pause</property>
    <property name="resource">C:/Users/truong.lathanh/Downloads/NUMX/GiaLai/clip/hau can/_UAN0530.JPG</property>
    <property name="ttl">1</property>
    <property name="aspect_ratio">1</property>
    <property name="progressive">1</property>
    <property name="seekable">1</property>
    <property name="mlt_service">qimage</property>
    <property name="global_feed">1</property>
    <property name="xml">was here</property>
    <property name="shotcut:hash">8d90a6320c17678151e2bd52a72b2d84</property>
  </producer>
  <producer id="producer50" title="Anonymous Submission" in="00:00:00.000" out="03:59:60.003">
    <property name="length">431738</property>
    <property name="eof">pause</property>
    <property name="resource">C:/Users/truong.lathanh/Downloads/NUMX/GiaLai/clip/Hinh cac be/IMG_0631.jpg</property>
    <property name="ttl">1</property>
    <property name="aspect_ratio">1</property>
    <property name="progressive">1</property>
    <property name="seekable">1</property>
    <property name="mlt_service">qimage</property>
    <property name="global_feed">1</property>
    <property name="xml">was here</property>
    <property name="shotcut:hash">456045251c3a9c48bede1e1153455b4a</property>
  </producer>
  <producer id="producer51" title="Anonymous Submission" in="00:00:00.000" out="00:00:16.944">
    <property name="length">509</property>
    <property name="eof">pause</property>
    <property name="resource">C:/Users/truong.lathanh/Downloads/NUMX/GiaLai/clip/Chuong trinh chinh/20181222_132023_an trua.mp4</property>
    <property name="audio_index">1</property>
    <property name="video_index">0</property>
    <property name="mute_on_pause">0</property>
    <property name="mlt_service">avformat-novalidate</property>
    <property name="seekable">1</property>
    <property name="aspect_ratio">1</property>
    <property name="global_feed">1</property>
    <property name="xml">was here</property>
    <property name="shotcut:hash">0988689ee41aea1864168dd5084388ab</property>
  </producer>
  <producer id="producer52" title="Anonymous Submission" in="00:00:00.000" out="00:00:18.445">
    <property name="length">554</property>
    <property name="eof">pause</property>
    <property name="resource">C:/Users/truong.lathanh/Downloads/NUMX/GiaLai/clip/Chuong trinh chinh/20181222_164355_tro choi 7 - van dong.mp4</property>
    <property name="audio_index">1</property>
    <property name="video_index">0</property>
    <property name="mute_on_pause">0</property>
    <property name="mlt_service">avformat-novalidate</property>
    <property name="seekable">1</property>
    <property name="aspect_ratio">1</property>
    <property name="global_feed">1</property>
    <property name="xml">was here</property>
    <property name="shotcut:hash">4e63319756caaede81cdaf4c4e50c265</property>
  </producer>
  <producer id="producer53" title="Anonymous Submission" in="00:00:00.000" out="00:00:03.535">
    <property name="length">107</property>
    <property name="eof">pause</property>
    <property name="resource">C:/Users/truong.lathanh/Downloads/NUMX/GiaLai/clip/Chuong trinh chinh/20181222_164115_tro choi 5 - to mau.mp4</property>
    <property name="audio_index">1</property>
    <property name="video_index">0</property>
    <property name="mute_on_pause">0</property>
    <property name="mlt_service">avformat-novalidate</property>
    <property name="seekable">1</property>
    <property name="aspect_ratio">1</property>
    <property name="global_feed">1</property>
    <property name="xml">was here</property>
    <property name="shotcut:hash">4bda257f637588384bbac7850d87b8e9</property>
  </producer>
  <producer id="producer54" title="Anonymous Submission" in="00:00:00.000" out="00:00:11.240">
    <property name="length">338</property>
    <property name="eof">pause</property>
    <property name="resource">C:/Users/truong.lathanh/Downloads/NUMX/GiaLai/clip/Chuong trinh chinh/20181222_163845_tro choi 4 - to mau.mp4</property>
    <property name="audio_index">1</property>
    <property name="video_index">0</property>
    <property name="mute_on_pause">0</property>
    <property name="mlt_service">avformat-novalidate</property>
    <property name="seekable">1</property>
    <property name="aspect_ratio">1</property>
    <property name="global_feed">1</property>
    <property name="xml">was here</property>
    <property name="shotcut:hash">ebd322a4bc5c59b0dc75a208a5ffdeda</property>
  </producer>
  <producer id="producer55" title="Anonymous Submission" in="00:00:00.000" out="00:00:04.303">
    <property name="length">130</property>
    <property name="eof">pause</property>
    <property name="resource">C:/Users/truong.lathanh/Downloads/NUMX/GiaLai/clip/Chuong trinh chinh/20181222_164146_tro choi 6 - to mau.mp4</property>
    <property name="audio_index">1</property>
    <property name="video_index">0</property>
    <property name="mute_on_pause">0</property>
    <property name="mlt_service">avformat-novalidate</property>
    <property name="seekable">1</property>
    <property name="aspect_ratio">1</property>
    <property name="global_feed">1</property>
    <property name="xml">was here</property>
    <property name="shotcut:hash">094f2fbb50ddcbfd8148a41e08dc7a16</property>
  </producer>
  <producer id="producer56" title="Anonymous Submission" in="00:00:00.000" out="03:59:60.003">
    <property name="length">431738</property>
    <property name="eof">pause</property>
    <property name="resource">C:/Users/truong.lathanh/Downloads/NUMX/GiaLai/clip/tro choi/_UAN0454.JPG</property>
    <property name="ttl">1</property>
    <property name="aspect_ratio">1</property>
    <property name="progressive">1</property>
    <property name="seekable">1</property>
    <property name="mlt_service">qimage</property>
    <property name="global_feed">1</property>
    <property name="xml">was here</property>
    <property name="shotcut:hash">cc5436829e1a9a50c6756ab86a49c3d8</property>
  </producer>
  <producer id="producer57" title="Anonymous Submission" in="00:00:00.000" out="03:59:60.003">
    <property name="length">431738</property>
    <property name="eof">pause</property>
    <property name="resource">C:/Users/truong.lathanh/Downloads/NUMX/GiaLai/clip/tro choi/_UAN0465.JPG</property>
    <property name="ttl">1</property>
    <property name="aspect_ratio">1</property>
    <property name="progressive">1</property>
    <property name="seekable">1</property>
    <property name="mlt_service">qimage</property>
    <property name="global_feed">1</property>
    <property name="xml">was here</property>
    <property name="shotcut:hash">7bf471c4eaeb129718f877f992de79ea</property>
  </producer>
  <producer id="producer58" title="Anonymous Submission" in="00:00:00.000" out="00:00:08.105">
    <property name="length">244</property>
    <property name="eof">pause</property>
    <property name="resource">C:/Users/truong.lathanh/Downloads/NUMX/GiaLai/clip/Chuong trinh chinh/20181222_142213_chuong trinh 1.mp4</property>
    <property name="audio_index">1</property>
    <property name="video_index">0</property>
    <property name="mute_on_pause">0</property>
    <property name="mlt_service">avformat-novalidate</property>
    <property name="seekable">1</property>
    <property name="aspect_ratio">1</property>
    <property name="global_feed">1</property>
    <property name="xml">was here</property>
    <property name="shotcut:hash">51a641060c5c7171e8c726020162062d</property>
  </producer>
  <playlist id="main_bin" title="Shotcut version 18.12.23">
    <property name="shotcut:projectAudioChannels">2</property>
    <property name="shotcut:projectFolder">1</property>
    <property name="xml_retain">1</property>
    <entry producer="producer0" in="00:00:00.000" out="00:00:12.441"/>
    <entry producer="producer1" in="00:00:00.000" out="00:00:03.969"/>
    <entry producer="producer2" in="00:00:00.000" out="00:00:04.436"/>
    <entry producer="producer3" in="00:00:00.000" out="00:00:05.937"/>
    <entry producer="producer4" in="00:00:00.000" out="00:00:03.736"/>
    <entry producer="producer5" in="00:00:00.000" out="00:00:02.568"/>
    <entry producer="producer6" in="00:00:00.000" out="00:00:08.205"/>
    <entry producer="producer7" in="00:00:00.000" out="00:00:28.050"/>
    <entry producer="producer8" in="00:00:00.000" out="00:00:09.239"/>
    <entry producer="producer9" in="00:00:00.000" out="00:00:05.537"/>
    <entry producer="producer10" in="00:00:00.000" out="00:00:12.374"/>
    <entry producer="producer11" in="00:00:00.000" out="00:00:04.436"/>
    <entry producer="producer12" in="00:00:00.000" out="00:00:04.436"/>
    <entry producer="producer13" in="00:00:00.000" out="00:00:04.436"/>
    <entry producer="producer14" in="00:00:00.000" out="00:00:04.436"/>
    <entry producer="producer15" in="00:00:00.000" out="00:00:04.436"/>
    <entry producer="producer16" in="00:00:00.000" out="00:00:04.436"/>
    <entry producer="producer17" in="00:00:00.000" out="00:00:06.270"/>
    <entry producer="producer18" in="00:00:00.000" out="00:00:02.902"/>
    <entry producer="producer19" in="00:00:00.000" out="00:00:04.436"/>
    <entry producer="producer20" in="00:00:00.000" out="00:00:04.436"/>
    <entry producer="producer21" in="00:00:00.000" out="00:00:04.436"/>
    <entry producer="producer22" in="00:00:00.000" out="00:00:04.436"/>
    <entry producer="producer23" in="00:00:00.000" out="00:00:03.069"/>
    <entry producer="producer24" in="00:00:00.000" out="00:00:02.935"/>
    <entry producer="producer25" in="00:00:00.000" out="00:00:04.436"/>
    <entry producer="producer26" in="00:00:00.000" out="00:00:04.436"/>
    <entry producer="producer27" in="00:00:00.000" out="00:00:04.436"/>
    <entry producer="producer28" in="00:00:00.000" out="00:00:18.211"/>
    <entry producer="producer29" in="00:00:00.000" out="00:00:04.436"/>
    <entry producer="producer30" in="00:00:00.000" out="00:00:04.436"/>
    <entry producer="producer31" in="00:00:00.000" out="00:00:04.436"/>
    <entry producer="producer32" in="00:00:00.000" out="00:00:04.436"/>
    <entry producer="producer35" in="00:00:00.000" out="00:00:04.436"/>
    <entry producer="producer33" in="00:00:00.000" out="00:00:25.049"/>
    <entry producer="producer34" in="00:00:00.000" out="00:00:04.436"/>
    <entry producer="producer36" in="00:00:00.000" out="00:00:07.805"/>
    <entry producer="producer37" in="00:00:00.000" out="00:00:04.436"/>
    <entry producer="producer38" in="00:00:00.000" out="00:00:03.669"/>
    <entry producer="producer39" in="00:00:00.000" out="00:00:04.436"/>
    <entry producer="producer40" in="00:00:00.000" out="00:00:04.336"/>
    <entry producer="producer41" in="00:00:00.000" out="00:00:13.942"/>
    <entry producer="producer42" in="00:00:00.000" out="00:00:03.602"/>
    <entry producer="producer43" in="00:00:00.000" out="00:00:20.179"/>
    <entry producer="producer44" in="00:00:00.000" out="00:00:03.736"/>
    <entry producer="producer45" in="00:00:00.000" out="00:00:06.170"/>
    <entry producer="producer46" in="00:00:00.000" out="00:00:04.436"/>
    <entry producer="producer47" in="00:00:00.000" out="00:00:04.436"/>
    <entry producer="producer48" in="00:00:00.000" out="00:00:04.436"/>
    <entry producer="producer49" in="00:00:00.000" out="00:00:04.436"/>
    <entry producer="producer50" in="00:00:00.000" out="00:00:04.436"/>
    <entry producer="producer51" in="00:00:00.000" out="00:00:16.944"/>
    <entry producer="producer52" in="00:00:00.000" out="00:00:18.445"/>
    <entry producer="producer53" in="00:00:00.000" out="00:00:03.535"/>
    <entry producer="producer54" in="00:00:00.000" out="00:00:11.240"/>
    <entry producer="producer55" in="00:00:00.000" out="00:00:04.303"/>
    <entry producer="producer56" in="00:00:00.000" out="00:00:04.436"/>
    <entry producer="producer57" in="00:00:00.000" out="00:00:04.436"/>
    <entry producer="producer58" in="00:00:00.000" out="00:00:08.105"/>
  </playlist>
  <producer id="black" in="00:00:00.000" out="00:05:25.582">
    <property name="length">9762</property>
    <property name="eof">pause</property>
    <property name="resource">black</property>
    <property name="aspect_ratio">1</property>
    <property name="mlt_service">color</property>
    <property name="mlt_image_format">rgb24</property>
    <property name="set.test_audio">0</property>
  </producer>
  <playlist id="background">
    <entry producer="black" in="00:00:00.000" out="00:05:25.582"/>
  </playlist>
  <producer id="producer59" title="Anonymous Submission" in="00:00:00.000" out="00:00:15.576">
    <property name="length">468</property>
    <property name="eof">pause</property>
    <property name="resource">0.8:C:\Users\truong.lathanh\Downloads\NUMX\GiaLai\clip\duong di\20181223_120337_duong di 5.mp4</property>
    <property name="aspect_ratio">1</property>
    <property name="seekable">1</property>
    <property name="audio_index">1</property>
    <property name="video_index">0</property>
    <property name="mute_on_pause">1</property>
    <property name="warp_speed">0.8</property>
    <property name="warp_resource">C:\Users\truong.lathanh\Downloads\NUMX\GiaLai\clip\duong di\20181223_120337_duong di 5.mp4</property>
    <property name="mlt_service">timewarp</property>
    <property name="shotcut:producer">avformat</property>
    <property name="video_delay">0</property>
    <property name="shotcut:hash">7c739e007da6bea894f8449ccacb0e21</property>
    <property name="global_feed">1</property>
    <property name="xml">was here</property>
    <property name="shotcut:caption">20181223_120337_duong di 5.mp4 (0.8x)</property>
    <property name="shotcut:detail">C:\Users\truong.lathanh\Downloads\NUMX\GiaLai\clip\duong di\20181223_120337_duong di 5.mp4</property>
    <filter id="filter0" out="00:00:07.972">
      <property name="mlt_service">avfilter.hue</property>
      <property name="av.h">0</property>
      <property name="av.b">-1</property>
      <property name="av.s">1</property>
      <property name="disable">0</property>
    </filter>
    <filter id="filter1" out="00:00:07.972">
      <property name="argument">NHỮNG ƯỚC MƠ XANH
</property>
      <property name="geometry">0 -135 1280 720 1</property>
      <property name="family">.VnMystical</property>
      <property name="size">50</property>
      <property name="weight">500</property>
      <property name="style">normal</property>
      <property name="fgcolour">#ffffffff</property>
      <property name="bgcolour">#00000000</property>
      <property name="olcolour">#ff000000</property>
      <property name="pad">0</property>
      <property name="halign">center</property>
      <property name="valign">middle</property>
      <property name="outline">0</property>
      <property name="mlt_service">dynamictext</property>
      <property name="shotcut:filter">dynamicText</property>
      <property name="shotcut:usePointSize">1</property>
      <property name="shotcut:animIn">00:00:00.000</property>
      <property name="shotcut:animOut">00:00:00.000</property>
      <property name="shotcut:pointSize">30</property>
      <property name="disable">0</property>
    </filter>
    <filter id="filter2" out="00:00:07.972">
      <property name="argument">CHƯƠNG TRÌNH
ÁO ẤM MÙA ĐÔNG</property>
      <property name="geometry">0 -60 1280 720 1</property>
      <property name="family">Cooper Std Black</property>
      <property name="size">66</property>
      <property name="weight">870</property>
      <property name="style">normal</property>
      <property name="fgcolour">#ffffffff</property>
      <property name="bgcolour">#00000000</property>
      <property name="olcolour">#ff000000</property>
      <property name="pad">0</property>
      <property name="halign">center</property>
      <property name="valign">middle</property>
      <property name="outline">0</property>
      <property name="mlt_service">dynamictext</property>
      <property name="shotcut:filter">dynamicText</property>
      <property name="shotcut:usePointSize">1</property>
      <property name="shotcut:animIn">00:00:00.000</property>
      <property name="shotcut:animOut">00:00:00.000</property>
      <property name="shotcut:pointSize">40</property>
      <property name="disable">0</property>
    </filter>
    <filter id="filter3" out="00:00:07.972">
      <property name="argument">22/12/2018
XÃ IA K ĐĂM,
HUYỆN IA PA, TỈNH GiA LAI</property>
      <property name="geometry">0 90 1280 720 1</property>
      <property name="family">Meiryo UI</property>
      <property name="size">41</property>
      <property name="weight">750</property>
      <property name="style">normal</property>
      <property name="fgcolour">#ffffffff</property>
      <property name="bgcolour">#00000000</property>
      <property name="olcolour">#ff000000</property>
      <property name="pad">0</property>
      <property name="halign">center</property>
      <property name="valign">middle</property>
      <property name="outline">0</property>
      <property name="mlt_service">dynamictext</property>
      <property name="shotcut:filter">dynamicText</property>
      <property name="shotcut:usePointSize">1</property>
      <property name="shotcut:animIn">00:00:00.000</property>
      <property name="shotcut:animOut">00:00:00.000</property>
      <property name="shotcut:pointSize">25</property>
      <property name="disable">0</property>
    </filter>
  </producer>
  <producer id="producer60" title="Anonymous Submission" in="00:00:00.000" out="00:00:05.937">
    <property name="length">179</property>
    <property name="eof">pause</property>
    <property name="resource">C:/Users/truong.lathanh/Downloads/NUMX/GiaLai/clip/Chuong trinh chinh/20181221_202319_khien do len xe.mp4</property>
    <property name="audio_index">1</property>
    <property name="video_index">0</property>
    <property name="mute_on_pause">0</property>
    <property name="mlt_service">avformat-novalidate</property>
    <property name="seekable">1</property>
    <property name="aspect_ratio">1</property>
    <property name="global_feed">1</property>
    <property name="xml">was here</property>
    <property name="shotcut:hash">cf9ea3e67e3b9f72e5db59c4e638e244</property>
    <property name="shotcut:caption">20181221_202319_khien do len xe.mp4</property>
    <property name="shotcut:detail">C:\Users\truong.lathanh\Downloads\NUMX\GiaLai\clip\Chuong trinh chinh\20181221_202319_khien do len xe.mp4</property>
  </producer>
  <tractor id="tractor0" title="Anonymous Submission" global_feed="1" in="00:00:00.000" out="00:00:00.901">
    <property name="shotcut:transition">lumaMix</property>
    <track producer="producer59" in="00:00:07.071" out="00:00:07.972"/>
    <track producer="producer60" in="00:00:00.000" out="00:00:00.901"/>
    <transition id="transition0" out="00:00:00.901">
      <property name="a_track">0</property>
      <property name="b_track">1</property>
      <property name="factory">loader</property>
      <property name="mlt_service">luma</property>
    </transition>
    <transition id="transition1" out="00:00:00.901">
      <property name="a_track">0</property>
      <property name="b_track">1</property>
      <property name="mlt_service">mix</property>
      <property name="start">-1</property>
      <property name="accepts_blanks">1</property>
    </transition>
  </tractor>
  <producer id="producer61" title="Anonymous Submission" in="00:00:00.000" out="00:00:05.937">
    <property name="length">179</property>
    <property name="eof">pause</property>
    <property name="resource">C:/Users/truong.lathanh/Downloads/NUMX/GiaLai/clip/Chuong trinh chinh/20181221_202319_khien do len xe.mp4</property>
    <property name="audio_index">1</property>
    <property name="video_index">0</property>
    <property name="mute_on_pause">0</property>
    <property name="mlt_service">avformat-novalidate</property>
    <property name="seekable">1</property>
    <property name="aspect_ratio">1</property>
    <property name="global_feed">1</property>
    <property name="xml">was here</property>
    <property name="shotcut:hash">cf9ea3e67e3b9f72e5db59c4e638e244</property>
    <property name="shotcut:caption">20181221_202319_khien do len xe.mp4</property>
    <property name="shotcut:detail">C:\Users\truong.lathanh\Downloads\NUMX\GiaLai\clip\Chuong trinh chinh\20181221_202319_khien do len xe.mp4</property>
  </producer>
  <producer id="producer62" title="Anonymous Submission" in="00:00:00.000" out="00:00:03.736">
    <property name="length">113</property>
    <property name="eof">pause</property>
    <property name="resource">C:/Users/truong.lathanh/Downloads/NUMX/GiaLai/clip/Chuong trinh chinh/20181221_204329_hop truoc khi len.mp4</property>
    <property name="audio_index">1</property>
    <property name="video_index">0</property>
    <property name="mute_on_pause">0</property>
    <property name="mlt_service">avformat-novalidate</property>
    <property name="seekable">1</property>
    <property name="aspect_ratio">1</property>
    <property name="global_feed">1</property>
    <property name="xml">was here</property>
    <property name="shotcut:hash">10b0571bbfe6d3fcb28e4b551ee80669</property>
    <property name="shotcut:caption">20181221_204329_hop truoc khi len.mp4</property>
    <property name="shotcut:detail">C:\Users\truong.lathanh\Downloads\NUMX\GiaLai\clip\Chuong trinh chinh\20181221_204329_hop truoc khi len.mp4</property>
  </producer>
  <tractor id="tractor1" title="Anonymous Submission" global_feed="1" in="00:00:00.000" out="00:00:00.600">
    <property name="shotcut:transition">lumaMix</property>
    <track producer="producer61" in="00:00:05.337" out="00:00:05.937"/>
    <track producer="producer62" in="00:00:00.000" out="00:00:00.600"/>
    <transition id="transition2" out="00:00:00.600">
      <property name="a_track">0</property>
      <property name="b_track">1</property>
      <property name="factory">loader</property>
      <property name="mlt_service">luma</property>
    </transition>
    <transition id="transition3" out="00:00:00.600">
      <property name="a_track">0</property>
      <property name="b_track">1</property>
      <property name="mlt_service">mix</property>
      <property name="start">-1</property>
      <property name="accepts_blanks">1</property>
    </transition>
  </tractor>
  <producer id="producer63" title="Anonymous Submission" in="00:00:00.000" out="00:00:02.568">
    <property name="length">78</property>
    <property name="eof">pause</property>
    <property name="resource">C:/Users/truong.lathanh/Downloads/NUMX/GiaLai/clip/duong di/20181222_064009_duong di 3 - intro.mp4</property>
    <property name="audio_index">1</property>
    <property name="video_index">0</property>
    <property name="mute_on_pause">0</property>
    <property name="mlt_service">avformat-novalidate</property>
    <property name="seekable">1</property>
    <property name="aspect_ratio">1</property>
    <property name="global_feed">1</property>
    <property name="xml">was here</property>
    <property name="shotcut:hash">356195cc0cb6f9ee237b92396ffe27f2</property>
    <property name="shotcut:caption">20181222_064009_duong di 3 - intro.mp4</property>
    <property name="shotcut:detail">C:\Users\truong.lathanh\Downloads\NUMX\GiaLai\clip\duong di\20181222_064009_duong di 3 - intro.mp4</property>
  </producer>
  <tractor id="tractor2" title="Anonymous Submission" global_feed="1" in="00:00:00.000" out="00:00:00.467">
    <property name="shotcut:transition">lumaMix</property>
    <track producer="producer62" in="00:00:03.269" out="00:00:03.736"/>
    <track producer="producer63" in="00:00:00.000" out="00:00:00.467"/>
    <transition id="transition4" out="00:00:00.467">
      <property name="a_track">0</property>
      <property name="b_track">1</property>
      <property name="factory">loader</property>
      <property name="mlt_service">luma</property>
    </transition>
    <transition id="transition5" out="00:00:00.467">
      <property name="a_track">0</property>
      <property name="b_track">1</property>
      <property name="mlt_service">mix</property>
      <property name="start">-1</property>
      <property name="accepts_blanks">1</property>
    </transition>
  </tractor>
  <producer id="producer64" title="Anonymous Submission" in="00:00:00.000" out="00:00:03.202">
    <property name="length">97</property>
    <property name="eof">pause</property>
    <property name="resource">0.8:C:\Users\truong.lathanh\Downloads\NUMX\GiaLai\clip\duong di\20181222_064009_duong di 3 - intro.mp4</property>
    <property name="aspect_ratio">1</property>
    <property name="seekable">1</property>
    <property name="audio_index">1</property>
    <property name="video_index">0</property>
    <property name="mute_on_pause">1</property>
    <property name="warp_speed">0.8</property>
    <property name="warp_resource">C:\Users\truong.lathanh\Downloads\NUMX\GiaLai\clip\duong di\20181222_064009_duong di 3 - intro.mp4</property>
    <property name="mlt_service">timewarp</property>
    <property name="shotcut:producer">avformat</property>
    <property name="video_delay">0</property>
    <property name="shotcut:hash">356195cc0cb6f9ee237b92396ffe27f2</property>
    <property name="global_feed">1</property>
    <property name="xml">was here</property>
  </producer>
  <producer id="producer65" title="Anonymous Submission" in="00:00:00.000" out="00:00:08.205">
    <property name="length">247</property>
    <property name="eof">pause</property>
    <property name="resource">C:/Users/truong.lathanh/Downloads/NUMX/GiaLai/clip/Chuong trinh chinh/20181222_073655_dừng xe ăn sáng 6.mp4</property>
    <property name="audio_index">1</property>
    <property name="video_index">0</property>
    <property name="mute_on_pause">0</property>
    <property name="mlt_service">avformat-novalidate</property>
    <property name="seekable">1</property>
    <property name="aspect_ratio">1</property>
    <property name="global_feed">1</property>
    <property name="xml">was here</property>
    <property name="shotcut:hash">16ad328e56a1ca8aa3fe003ac55eec60</property>
    <property name="shotcut:caption">20181222_073655_dừng xe ăn sáng 6.mp4</property>
    <property name="shotcut:detail">C:\Users\truong.lathanh\Downloads\NUMX\GiaLai\clip\Chuong trinh chinh\20181222_073655_dừng xe ăn sáng 6.mp4</property>
  </producer>
  <tractor id="tractor3" title="Anonymous Submission" global_feed="1" in="00:00:00.000" out="00:00:00.534">
    <property name="shotcut:transition">lumaMix</property>
    <track producer="producer64" in="00:00:02.668" out="00:00:03.202"/>
    <track producer="producer65" in="00:00:00.000" out="00:00:00.534"/>
    <transition id="transition6" out="00:00:00.534">
      <property name="a_track">0</property>
      <property name="b_track">1</property>
      <property name="factory">loader</property>
      <property name="mlt_service">luma</property>
    </transition>
    <transition id="transition7" out="00:00:00.534">
      <property name="a_track">0</property>
      <property name="b_track">1</property>
      <property name="mlt_service">mix</property>
      <property name="start">-1</property>
      <property name="accepts_blanks">1</property>
    </transition>
  </tractor>
  <producer id="producer66" title="Anonymous Submission" in="00:00:00.000" out="00:00:08.205">
    <property name="length">247</property>
    <property name="eof">pause</property>
    <property name="resource">C:/Users/truong.lathanh/Downloads/NUMX/GiaLai/clip/Chuong trinh chinh/20181222_073655_dừng xe ăn sáng 6.mp4</property>
    <property name="audio_index">1</property>
    <property name="video_index">0</property>
    <property name="mute_on_pause">0</property>
    <property name="mlt_service">avformat-novalidate</property>
    <property name="seekable">1</property>
    <property name="aspect_ratio">1</property>
    <property name="global_feed">1</property>
    <property name="xml">was here</property>
    <property name="shotcut:hash">16ad328e56a1ca8aa3fe003ac55eec60</property>
    <property name="shotcut:caption">20181222_073655_dừng xe ăn sáng 6.mp4</property>
    <property name="shotcut:detail">C:\Users\truong.lathanh\Downloads\NUMX\GiaLai\clip\Chuong trinh chinh\20181222_073655_dừng xe ăn sáng 6.mp4</property>
  </producer>
  <producer id="producer67" title="Anonymous Submission" in="00:00:00.000" out="00:00:28.050">
    <property name="length">842</property>
    <property name="eof">pause</property>
    <property name="resource">C:\Users\truong.lathanh\Downloads\NUMX\GiaLai\clip\Chuong trinh chinh\20181222_071420_dừng xe ăn sáng 1.mp4</property>
    <property name="seekable">1</property>
    <property name="aspect_ratio">1</property>
    <property name="audio_index">1</property>
    <property name="video_index">0</property>
    <property name="mute_on_pause">1</property>
    <property name="mlt_service">avformat</property>
    <property name="video_delay">0</property>
    <property name="shotcut:hash">06555db1e2c541d0663e4fd9fe14afd8</property>
    <property name="global_feed">1</property>
    <property name="xml">was here</property>
    <property name="shotcut:caption">20181222_071420_dừng xe ăn sáng 1.mp4</property>
    <property name="shotcut:detail">C:\Users\truong.lathanh\Downloads\NUMX\GiaLai\clip\Chuong trinh chinh\20181222_071420_dừng xe ăn sáng 1.mp4</property>
  </producer>
  <producer id="producer68" title="Anonymous Submission" in="00:00:00.000" out="00:00:09.239">
    <property name="length">278</property>
    <property name="eof">pause</property>
    <property name="resource">C:/Users/truong.lathanh/Downloads/NUMX/GiaLai/clip/Chuong trinh chinh/20181222_072556_dừng xe ăn sáng 3.mp4</property>
    <property name="audio_index">1</property>
    <property name="video_index">0</property>
    <property name="mute_on_pause">0</property>
    <property name="mlt_service">avformat-novalidate</property>
    <property name="seekable">1</property>
    <property name="aspect_ratio">1</property>
    <property name="global_feed">1</property>
    <property name="xml">was here</property>
    <property name="shotcut:hash">2f738a54c23e09627cd8e316c7420900</property>
    <property name="shotcut:caption">20181222_072556_dừng xe ăn sáng 3.mp4</property>
    <property name="shotcut:detail">C:\Users\truong.lathanh\Downloads\NUMX\GiaLai\clip\Chuong trinh chinh\20181222_072556_dừng xe ăn sáng 3.mp4</property>
  </producer>
  <producer id="producer69" title="Anonymous Submission" in="00:00:00.000" out="00:00:03.069">
    <property name="length">93</property>
    <property name="eof">pause</property>
    <property name="resource">3:C:\Users\truong.lathanh\Downloads\NUMX\GiaLai\clip\Chuong trinh chinh\20181222_072556_dừng xe ăn sáng 3.mp4</property>
    <property name="aspect_ratio">1</property>
    <property name="seekable">1</property>
    <property name="audio_index">1</property>
    <property name="video_index">0</property>
    <property name="mute_on_pause">1</property>
    <property name="warp_speed">3</property>
    <property name="warp_resource">C:\Users\truong.lathanh\Downloads\NUMX\GiaLai\clip\Chuong trinh chinh\20181222_072556_dừng xe ăn sáng 3.mp4</property>
    <property name="mlt_service">timewarp</property>
    <property name="shotcut:producer">avformat</property>
    <property name="video_delay">0</property>
    <property name="shotcut:hash">2f738a54c23e09627cd8e316c7420900</property>
    <property name="global_feed">1</property>
    <property name="xml">was here</property>
    <property name="shotcut:caption">20181222_072556_dừng xe ăn sáng 3.mp4 (3x)</property>
    <property name="shotcut:detail">C:\Users\truong.lathanh\Downloads\NUMX\GiaLai\clip\Chuong trinh chinh\20181222_072556_dừng xe ăn sáng 3.mp4</property>
  </producer>
  <producer id="producer70" title="Anonymous Submission" in="00:00:00.000" out="00:00:09.239">
    <property name="length">278</property>
    <property name="eof">pause</property>
    <property name="resource">C:/Users/truong.lathanh/Downloads/NUMX/GiaLai/clip/Chuong trinh chinh/20181222_072556_dừng xe ăn sáng 3.mp4</property>
    <property name="audio_index">1</property>
    <property name="video_index">0</property>
    <property name="mute_on_pause">0</property>
    <property name="mlt_service">avformat-novalidate</property>
    <property name="seekable">1</property>
    <property name="aspect_ratio">1</property>
    <property name="global_feed">1</property>
    <property name="xml">was here</property>
    <property name="shotcut:hash">2f738a54c23e09627cd8e316c7420900</property>
    <property name="shotcut:caption">20181222_072556_dừng xe ăn sáng 3.mp4</property>
    <property name="shotcut:detail">C:\Users\truong.lathanh\Downloads\NUMX\GiaLai\clip\Chuong trinh chinh\20181222_072556_dừng xe ăn sáng 3.mp4</property>
  </producer>
  <producer id="producer71" title="Anonymous Submission" in="00:00:00.000" out="00:00:03.069">
    <property name="length">93</property>
    <property name="eof">pause</property>
    <property name="resource">3:C:\Users\truong.lathanh\Downloads\NUMX\GiaLai\clip\Chuong trinh chinh\20181222_072556_dừng xe ăn sáng 3.mp4</property>
    <property name="aspect_ratio">1</property>
    <property name="seekable">1</property>
    <property name="audio_index">1</property>
    <property name="video_index">0</property>
    <property name="mute_on_pause">1</property>
    <property name="warp_speed">3</property>
    <property name="warp_resource">C:\Users\truong.lathanh\Downloads\NUMX\GiaLai\clip\Chuong trinh chinh\20181222_072556_dừng xe ăn sáng 3.mp4</property>
    <property name="mlt_service">timewarp</property>
    <property name="shotcut:producer">avformat</property>
    <property name="video_delay">0</property>
    <property name="shotcut:hash">2f738a54c23e09627cd8e316c7420900</property>
    <property name="global_feed">1</property>
    <property name="xml">was here</property>
    <property name="shotcut:caption">20181222_072556_dừng xe ăn sáng 3.mp4 (3x)</property>
    <property name="shotcut:detail">C:\Users\truong.lathanh\Downloads\NUMX\GiaLai\clip\Chuong trinh chinh\20181222_072556_dừng xe ăn sáng 3.mp4</property>
  </producer>
  <producer id="producer72" title="Anonymous Submission" in="00:00:00.000" out="00:00:09.239">
    <property name="length">278</property>
    <property name="eof">pause</property>
    <property name="resource">C:/Users/truong.lathanh/Downloads/NUMX/GiaLai/clip/Chuong trinh chinh/20181222_072556_dừng xe ăn sáng 3.mp4</property>
    <property name="audio_index">1</property>
    <property name="video_index">0</property>
    <property name="mute_on_pause">0</property>
    <property name="mlt_service">avformat-novalidate</property>
    <property name="seekable">1</property>
    <property name="aspect_ratio">1</property>
    <property name="global_feed">1</property>
    <property name="xml">was here</property>
    <property name="shotcut:hash">2f738a54c23e09627cd8e316c7420900</property>
    <property name="shotcut:caption">20181222_072556_dừng xe ăn sáng 3.mp4</property>
    <property name="shotcut:detail">C:\Users\truong.lathanh\Downloads\NUMX\GiaLai\clip\Chuong trinh chinh\20181222_072556_dừng xe ăn sáng 3.mp4</property>
  </producer>
  <producer id="producer73" title="Anonymous Submission" in="00:00:00.000" out="00:00:05.537">
    <property name="length">167</property>
    <property name="eof">pause</property>
    <property name="resource">C:/Users/truong.lathanh/Downloads/NUMX/GiaLai/clip/Chuong trinh chinh/20181222_072736_dừng xe ăn sáng 4.mp4</property>
    <property name="audio_index">1</property>
    <property name="video_index">0</property>
    <property name="mute_on_pause">0</property>
    <property name="mlt_service">avformat-novalidate</property>
    <property name="seekable">1</property>
    <property name="aspect_ratio">1</property>
    <property name="global_feed">1</property>
    <property name="xml">was here</property>
    <property name="shotcut:hash">281ae2bf5003e1c70629f2ad8c33111c</property>
    <property name="shotcut:caption">20181222_072736_dừng xe ăn sáng 4.mp4</property>
    <property name="shotcut:detail">C:\Users\truong.lathanh\Downloads\NUMX\GiaLai\clip\Chuong trinh chinh\20181222_072736_dừng xe ăn sáng 4.mp4</property>
  </producer>
  <producer id="producer74" title="Anonymous Submission" in="00:00:00.000" out="00:00:12.374">
    <property name="length">372</property>
    <property name="eof">pause</property>
    <property name="resource">C:/Users/truong.lathanh/Downloads/NUMX/GiaLai/clip/Chuong trinh chinh/20181222_075435_duong di sau an sang.mp4</property>
    <property name="audio_index">1</property>
    <property name="video_index">0</property>
    <property name="mute_on_pause">0</property>
    <property name="mlt_service">avformat-novalidate</property>
    <property name="seekable">1</property>
    <property name="aspect_ratio">1</property>
    <property name="global_feed">1</property>
    <property name="xml">was here</property>
    <property name="shotcut:hash">c0bad4daf5c90813b1be1ea38375c4c5</property>
    <property name="shotcut:caption">20181222_075435_duong di sau an sang.mp4</property>
    <property name="shotcut:detail">C:\Users\truong.lathanh\Downloads\NUMX\GiaLai\clip\Chuong trinh chinh\20181222_075435_duong di sau an sang.mp4</property>
  </producer>
  <tractor id="tractor4" title="Anonymous Submission" global_feed="1" in="00:00:00.000" out="00:00:00.634">
    <property name="shotcut:transition">lumaMix</property>
    <track producer="producer73" in="00:00:04.903" out="00:00:05.537"/>
    <track producer="producer74" in="00:00:03.069" out="00:00:03.702"/>
    <transition id="transition8" out="00:00:00.634">
      <property name="a_track">0</property>
      <property name="b_track">1</property>
      <property name="factory">loader</property>
      <property name="mlt_service">luma</property>
    </transition>
    <transition id="transition9" out="00:00:00.634">
      <property name="a_track">0</property>
      <property name="b_track">1</property>
      <property name="mlt_service">mix</property>
      <property name="start">-1</property>
      <property name="accepts_blanks">1</property>
    </transition>
  </tractor>
  <producer id="producer75" title="Anonymous Submission" in="00:00:00.000" out="03:59:60.003">
    <property name="length">431738</property>
    <property name="eof">pause</property>
    <property name="resource">C:/Users/truong.lathanh/Downloads/NUMX/GiaLai/clip/Chuong trinh chinh/_UAN0050.JPG</property>
    <property name="ttl">1</property>
    <property name="aspect_ratio">1</property>
    <property name="progressive">1</property>
    <property name="seekable">1</property>
    <property name="mlt_service">qimage</property>
    <property name="global_feed">1</property>
    <property name="xml">was here</property>
    <property name="shotcut:hash">442c64543d1bff36923682e8439b996b</property>
  </producer>
  <tractor id="tractor5" title="Anonymous Submission" global_feed="1" in="00:00:00.000" out="00:00:01.734">
    <property name="shotcut:transition">lumaMix</property>
    <track producer="producer74" in="00:00:10.640" out="00:00:12.374"/>
    <track producer="producer75" in="00:00:00.000" out="00:00:01.734"/>
    <transition id="transition10" out="00:00:01.734">
      <property name="a_track">0</property>
      <property name="b_track">1</property>
      <property name="factory">loader</property>
      <property name="mlt_service">luma</property>
    </transition>
    <transition id="transition11" out="00:00:01.734">
      <property name="a_track">0</property>
      <property name="b_track">1</property>
      <property name="mlt_service">mix</property>
      <property name="start">-1</property>
      <property name="accepts_blanks">1</property>
    </transition>
  </tractor>
  <producer id="producer76" title="Anonymous Submission" in="00:00:00.000" out="03:59:60.003">
    <property name="length">431738</property>
    <property name="eof">pause</property>
    <property name="resource">C:/Users/truong.lathanh/Downloads/NUMX/GiaLai/clip/van chuyen do/_UAN0090.JPG</property>
    <property name="ttl">1</property>
    <property name="aspect_ratio">1</property>
    <property name="progressive">1</property>
    <property name="seekable">1</property>
    <property name="mlt_service">qimage</property>
    <property name="global_feed">1</property>
    <property name="xml">was here</property>
    <property name="shotcut:hash">ad204d6589d77e0235b85901e6f1b9ac</property>
  </producer>
  <tractor id="tractor6" title="Anonymous Submission" global_feed="1" in="00:00:00.000" out="00:00:01.701">
    <property name="shotcut:transition">lumaMix</property>
    <track producer="producer75" in="00:00:02.735" out="00:00:04.436"/>
    <track producer="producer76" in="00:00:00.000" out="00:00:01.701"/>
    <transition id="transition12" out="00:00:01.701">
      <property name="a_track">0</property>
      <property name="b_track">1</property>
      <property name="factory">loader</property>
      <property name="mlt_service">luma</property>
    </transition>
    <transition id="transition13" out="00:00:01.701">
      <property name="a_track">0</property>
      <property name="b_track">1</property>
      <property name="mlt_service">mix</property>
      <property name="start">-1</property>
      <property name="accepts_blanks">1</property>
    </transition>
  </tractor>
  <producer id="producer77" title="Anonymous Submission" in="00:00:00.000" out="03:59:60.003">
    <property name="length">431738</property>
    <property name="eof">pause</property>
    <property name="resource">C:/Users/truong.lathanh/Downloads/NUMX/GiaLai/clip/van chuyen do/_UAN0125.JPG</property>
    <property name="ttl">1</property>
    <property name="aspect_ratio">1</property>
    <property name="progressive">1</property>
    <property name="seekable">1</property>
    <property name="mlt_service">qimage</property>
    <property name="global_feed">1</property>
    <property name="xml">was here</property>
    <property name="shotcut:hash">0c821169ebf1e3ca96ae0ca596eb66e6</property>
  </producer>
  <tractor id="tractor7" title="Anonymous Submission" global_feed="1" in="00:00:00.000" out="00:00:01.801">
    <property name="shotcut:transition">lumaMix</property>
    <track producer="producer76" in="00:00:02.635" out="00:00:04.436"/>
    <track producer="producer77" in="00:00:00.000" out="00:00:01.801"/>
    <transition id="transition14" out="00:00:01.801">
      <property name="a_track">0</property>
      <property name="b_track">1</property>
      <property name="factory">loader</property>
      <property name="mlt_service">luma</property>
    </transition>
    <transition id="transition15" out="00:00:01.801">
      <property name="a_track">0</property>
      <property name="b_track">1</property>
      <property name="mlt_service">mix</property>
      <property name="start">-1</property>
      <property name="accepts_blanks">1</property>
    </transition>
  </tractor>
  <producer id="producer78" title="Anonymous Submission" in="00:00:00.000" out="03:59:60.003">
    <property name="length">431738</property>
    <property name="eof">pause</property>
    <property name="resource">C:/Users/truong.lathanh/Downloads/NUMX/GiaLai/clip/van chuyen do/_UAN0126.JPG</property>
    <property name="ttl">1</property>
    <property name="aspect_ratio">1</property>
    <property name="progressive">1</property>
    <property name="seekable">1</property>
    <property name="mlt_service">qimage</property>
    <property name="global_feed">1</property>
    <property name="xml">was here</property>
    <property name="shotcut:hash">42954298a00ade6444f327700b67503a</property>
  </producer>
  <tractor id="tractor8" title="Anonymous Submission" global_feed="1" in="00:00:00.000" out="00:00:01.768">
    <property name="shotcut:transition">lumaMix</property>
    <track producer="producer77" in="00:00:02.668" out="00:00:04.436"/>
    <track producer="producer78" in="00:00:00.000" out="00:00:01.768"/>
    <transition id="transition16" out="00:00:01.768">
      <property name="a_track">0</property>
      <property name="b_track">1</property>
      <property name="factory">loader</property>
      <property name="mlt_service">luma</property>
    </transition>
    <transition id="transition17" out="00:00:01.768">
      <property name="a_track">0</property>
      <property name="b_track">1</property>
      <property name="mlt_service">mix</property>
      <property name="start">-1</property>
      <property name="accepts_blanks">1</property>
    </transition>
  </tractor>
  <producer id="producer79" title="Anonymous Submission" in="00:00:00.000" out="03:59:60.003">
    <property name="length">431738</property>
    <property name="eof">pause</property>
    <property name="resource">C:/Users/truong.lathanh/Downloads/NUMX/GiaLai/clip/van chuyen do/_UAN0134.JPG</property>
    <property name="ttl">1</property>
    <property name="aspect_ratio">1</property>
    <property name="progressive">1</property>
    <property name="seekable">1</property>
    <property name="mlt_service">qimage</property>
    <property name="global_feed">1</property>
    <property name="xml">was here</property>
    <property name="shotcut:hash">d8ab1cce98ac477d651693eb757ed395</property>
  </producer>
  <tractor id="tractor9" title="Anonymous Submission" global_feed="1" in="00:00:00.000" out="00:00:01.668">
    <property name="shotcut:transition">lumaMix</property>
    <track producer="producer78" in="00:00:02.768" out="00:00:04.436"/>
    <track producer="producer79" in="00:00:00.000" out="00:00:01.668"/>
    <transition id="transition18" out="00:00:01.668">
      <property name="a_track">0</property>
      <property name="b_track">1</property>
      <property name="factory">loader</property>
      <property name="mlt_service">luma</property>
    </transition>
    <transition id="transition19" out="00:00:01.668">
      <property name="a_track">0</property>
      <property name="b_track">1</property>
      <property name="mlt_service">mix</property>
      <property name="start">-1</property>
      <property name="accepts_blanks">1</property>
    </transition>
  </tractor>
  <producer id="producer80" title="Anonymous Submission" in="00:00:00.000" out="03:59:60.003">
    <property name="length">431738</property>
    <property name="eof">pause</property>
    <property name="resource">C:/Users/truong.lathanh/Downloads/NUMX/GiaLai/clip/van chuyen do/_UAN0139.JPG</property>
    <property name="ttl">1</property>
    <property name="aspect_ratio">1</property>
    <property name="progressive">1</property>
    <property name="seekable">1</property>
    <property name="mlt_service">qimage</property>
    <property name="global_feed">1</property>
    <property name="xml">was here</property>
    <property name="shotcut:hash">427355dc57857fb30d6e25949ebbb83c</property>
  </producer>
  <tractor id="tractor10" title="Anonymous Submission" global_feed="1" in="00:00:00.000" out="00:00:01.801">
    <property name="shotcut:transition">lumaMix</property>
    <track producer="producer79" in="00:00:02.635" out="00:00:04.436"/>
    <track producer="producer80" in="00:00:00.000" out="00:00:01.801"/>
    <transition id="transition20" out="00:00:01.801">
      <property name="a_track">0</property>
      <property name="b_track">1</property>
      <property name="factory">loader</property>
      <property name="mlt_service">luma</property>
    </transition>
    <transition id="transition21" out="00:00:01.801">
      <property name="a_track">0</property>
      <property name="b_track">1</property>
      <property name="mlt_service">mix</property>
      <property name="start">-1</property>
      <property name="accepts_blanks">1</property>
    </transition>
  </tractor>
  <producer id="producer81" title="Anonymous Submission" in="00:00:00.000" out="00:00:08.972">
    <property name="length">270</property>
    <property name="eof">pause</property>
    <property name="resource">0.7:C:\Users\truong.lathanh\Downloads\NUMX\GiaLai\clip\Chuong trinh chinh\20181222_111452_bao quat 1.mp4</property>
    <property name="aspect_ratio">1</property>
    <property name="seekable">1</property>
    <property name="audio_index">1</property>
    <property name="video_index">0</property>
    <property name="mute_on_pause">1</property>
    <property name="warp_speed">0.7</property>
    <property name="warp_resource">C:\Users\truong.lathanh\Downloads\NUMX\GiaLai\clip\Chuong trinh chinh\20181222_111452_bao quat 1.mp4</property>
    <property name="mlt_service">timewarp</property>
    <property name="shotcut:producer">avformat</property>
    <property name="video_delay">0</property>
    <property name="shotcut:hash">8cba18f30303698952227a053860d2d8</property>
    <property name="global_feed">1</property>
    <property name="xml">was here</property>
  </producer>
  <producer id="producer82" title="Anonymous Submission" in="00:00:00.000" out="00:00:02.902">
    <property name="length">88</property>
    <property name="eof">pause</property>
    <property name="resource">C:/Users/truong.lathanh/Downloads/NUMX/GiaLai/clip/Chuong trinh chinh/20181222_122537_chup hinh 1.mp4</property>
    <property name="audio_index">1</property>
    <property name="video_index">0</property>
    <property name="mute_on_pause">0</property>
    <property name="mlt_service">avformat-novalidate</property>
    <property name="seekable">1</property>
    <property name="aspect_ratio">1</property>
    <property name="global_feed">1</property>
    <property name="xml">was here</property>
    <property name="shotcut:hash">7106461748d869b2f61535c6748e4737</property>
    <property name="shotcut:caption">20181222_122537_chup hinh 1.mp4</property>
    <property name="shotcut:detail">C:\Users\truong.lathanh\Downloads\NUMX\GiaLai\clip\Chuong trinh chinh\20181222_122537_chup hinh 1.mp4</property>
  </producer>
  <tractor id="tractor11" title="Anonymous Submission" global_feed="1" in="00:00:00.000" out="00:00:01.367">
    <property name="shotcut:transition">lumaMix</property>
    <track producer="producer81" in="00:00:06.304" out="00:00:07.671"/>
    <track producer="producer82" in="00:00:00.000" out="00:00:01.367"/>
    <transition id="transition22" out="00:00:01.367">
      <property name="a_track">0</property>
      <property name="b_track">1</property>
      <property name="factory">loader</property>
      <property name="mlt_service">luma</property>
    </transition>
    <transition id="transition23" out="00:00:01.367">
      <property name="a_track">0</property>
      <property name="b_track">1</property>
      <property name="mlt_service">mix</property>
      <property name="start">-1</property>
      <property name="accepts_blanks">1</property>
    </transition>
  </tractor>
  <producer id="producer83" title="Anonymous Submission" in="00:00:00.000" out="03:59:60.003">
    <property name="length">431738</property>
    <property name="eof">pause</property>
    <property name="resource">C:/Users/truong.lathanh/Downloads/NUMX/GiaLai/clip/Hinh cac be/_MG_7778.JPG</property>
    <property name="ttl">1</property>
    <property name="aspect_ratio">1</property>
    <property name="progressive">1</property>
    <property name="seekable">1</property>
    <property name="mlt_service">qimage</property>
    <property name="global_feed">1</property>
    <property name="xml">was here</property>
    <property name="shotcut:hash">7fe2c20a3316b05f5d0610e940c21e04</property>
  </producer>
  <producer id="producer84" title="Anonymous Submission" in="00:00:00.000" out="03:59:60.003">
    <property name="length">431738</property>
    <property name="eof">pause</property>
    <property name="resource">C:/Users/truong.lathanh/Downloads/NUMX/GiaLai/clip/Hinh cac be/_MG_7868.JPG</property>
    <property name="ttl">1</property>
    <property name="aspect_ratio">1</property>
    <property name="progressive">1</property>
    <property name="seekable">1</property>
    <property name="mlt_service">qimage</property>
    <property name="global_feed">1</property>
    <property name="xml">was here</property>
    <property name="shotcut:hash">a45681316039f38f667803fcdb929396</property>
  </producer>
  <tractor id="tractor12" title="Anonymous Submission" global_feed="1" in="00:00:00.000" out="00:00:02.035">
    <property name="shotcut:transition">lumaMix</property>
    <track producer="producer83" in="00:00:02.401" out="00:00:04.436"/>
    <track producer="producer84" in="00:00:00.000" out="00:00:02.035"/>
    <transition id="transition24" out="00:00:02.035">
      <property name="a_track">0</property>
      <property name="b_track">1</property>
      <property name="factory">loader</property>
      <property name="mlt_service">luma</property>
    </transition>
    <transition id="transition25" out="00:00:02.035">
      <property name="a_track">0</property>
      <property name="b_track">1</property>
      <property name="mlt_service">mix</property>
      <property name="start">-1</property>
      <property name="accepts_blanks">1</property>
    </transition>
  </tractor>
  <producer id="producer85" title="Anonymous Submission" in="00:00:00.000" out="03:59:60.003">
    <property name="length">431738</property>
    <property name="eof">pause</property>
    <property name="resource">C:/Users/truong.lathanh/Downloads/NUMX/GiaLai/clip/Hinh cac be/45 001.JPG</property>
    <property name="ttl">1</property>
    <property name="aspect_ratio">1</property>
    <property name="progressive">1</property>
    <property name="seekable">1</property>
    <property name="mlt_service">qimage</property>
    <property name="global_feed">1</property>
    <property name="xml">was here</property>
    <property name="shotcut:hash">6960a79fff84b7969f94b8aa30dfb956</property>
  </producer>
  <tractor id="tractor13" title="Anonymous Submission" global_feed="1" in="00:00:00.000" out="00:00:01.534">
    <property name="shotcut:transition">lumaMix</property>
    <track producer="producer84" in="00:00:02.902" out="00:00:04.436"/>
    <track producer="producer85" in="00:00:00.000" out="00:00:01.534"/>
    <transition id="transition26" out="00:00:01.534">
      <property name="a_track">0</property>
      <property name="b_track">1</property>
      <property name="factory">loader</property>
      <property name="mlt_service">luma</property>
    </transition>
    <transition id="transition27" out="00:00:01.534">
      <property name="a_track">0</property>
      <property name="b_track">1</property>
      <property name="mlt_service">mix</property>
      <property name="start">-1</property>
      <property name="accepts_blanks">1</property>
    </transition>
  </tractor>
  <producer id="producer86" title="Anonymous Submission" in="00:00:00.000" out="03:59:60.003">
    <property name="length">431738</property>
    <property name="eof">pause</property>
    <property name="resource">C:/Users/truong.lathanh/Downloads/NUMX/GiaLai/clip/Hinh cac be/_MG_8475.JPG</property>
    <property name="ttl">1</property>
    <property name="aspect_ratio">1</property>
    <property name="progressive">1</property>
    <property name="seekable">1</property>
    <property name="mlt_service">qimage</property>
    <property name="global_feed">1</property>
    <property name="xml">was here</property>
    <property name="shotcut:hash">0a45d2ae55dbe9b2b875ef341e462273</property>
  </producer>
  <tractor id="tractor14" title="Anonymous Submission" global_feed="1" in="00:00:00.000" out="00:00:01.668">
    <property name="shotcut:transition">lumaMix</property>
    <track producer="producer85" in="00:00:02.768" out="00:00:04.436"/>
    <track producer="producer86" in="00:00:00.000" out="00:00:01.668"/>
    <transition id="transition28" out="00:00:01.668">
      <property name="a_track">0</property>
      <property name="b_track">1</property>
      <property name="factory">loader</property>
      <property name="mlt_service">luma</property>
    </transition>
    <transition id="transition29" out="00:00:01.668">
      <property name="a_track">0</property>
      <property name="b_track">1</property>
      <property name="mlt_service">mix</property>
      <property name="start">-1</property>
      <property name="accepts_blanks">1</property>
    </transition>
  </tractor>
  <producer id="producer87" title="Anonymous Submission" in="00:00:00.000" out="00:00:03.069">
    <property name="length">93</property>
    <property name="eof">pause</property>
    <property name="resource">C:/Users/truong.lathanh/Downloads/NUMX/GiaLai/clip/Chuong trinh chinh/20181222_121957_tro choi 2.mp4</property>
    <property name="audio_index">1</property>
    <property name="video_index">0</property>
    <property name="mute_on_pause">0</property>
    <property name="mlt_service">avformat-novalidate</property>
    <property name="seekable">1</property>
    <property name="aspect_ratio">1</property>
    <property name="global_feed">1</property>
    <property name="xml">was here</property>
    <property name="shotcut:hash">d292e3099d003d49c170a793a9eaa279</property>
    <property name="shotcut:caption">20181222_121957_tro choi 2.mp4</property>
    <property name="shotcut:detail">C:\Users\truong.lathanh\Downloads\NUMX\GiaLai\clip\Chuong trinh chinh\20181222_121957_tro choi 2.mp4</property>
  </producer>
  <producer id="producer88" title="Anonymous Submission" in="00:00:00.000" out="00:00:02.935">
    <property name="length">89</property>
    <property name="eof">pause</property>
    <property name="resource">C:/Users/truong.lathanh/Downloads/NUMX/GiaLai/clip/Chuong trinh chinh/20181222_122012_tro choi 3.mp4</property>
    <property name="audio_index">1</property>
    <property name="video_index">0</property>
    <property name="mute_on_pause">0</property>
    <property name="mlt_service">avformat-novalidate</property>
    <property name="seekable">1</property>
    <property name="aspect_ratio">1</property>
    <property name="global_feed">1</property>
    <property name="xml">was here</property>
    <property name="shotcut:hash">04aa6710f6e3d458efeab7bf245862bd</property>
    <property name="shotcut:caption">20181222_122012_tro choi 3.mp4</property>
    <property name="shotcut:detail">C:\Users\truong.lathanh\Downloads\NUMX\GiaLai\clip\Chuong trinh chinh\20181222_122012_tro choi 3.mp4</property>
  </producer>
  <tractor id="tractor15" title="Anonymous Submission" global_feed="1" in="00:00:00.000" out="00:00:01.434">
    <property name="shotcut:transition">lumaMix</property>
    <track producer="producer87" in="00:00:01.634" out="00:00:03.069"/>
    <track producer="producer88" in="00:00:00.000" out="00:00:01.434"/>
    <transition id="transition30" out="00:00:01.434">
      <property name="a_track">0</property>
      <property name="b_track">1</property>
      <property name="factory">loader</property>
      <property name="mlt_service">luma</property>
    </transition>
    <transition id="transition31" out="00:00:01.434">
      <property name="a_track">0</property>
      <property name="b_track">1</property>
      <property name="mlt_service">mix</property>
      <property name="start">-1</property>
      <property name="accepts_blanks">1</property>
    </transition>
  </tractor>
  <producer id="producer89" title="Anonymous Submission" in="00:00:00.000" out="03:59:60.003">
    <property name="length">431738</property>
    <property name="eof">pause</property>
    <property name="resource">C:/Users/truong.lathanh/Downloads/NUMX/GiaLai/clip/Hinh cac be/_MG_7897.JPG</property>
    <property name="ttl">1</property>
    <property name="aspect_ratio">1</property>
    <property name="progressive">1</property>
    <property name="seekable">1</property>
    <property name="mlt_service">qimage</property>
    <property name="global_feed">1</property>
    <property name="xml">was here</property>
    <property name="shotcut:hash">653dea16fed778b69fb7b34d0a3a96a9</property>
  </producer>
  <producer id="producer90" title="Anonymous Submission" in="00:00:00.000" out="03:59:60.003">
    <property name="length">431738</property>
    <property name="eof">pause</property>
    <property name="resource">C:/Users/truong.lathanh/Downloads/NUMX/GiaLai/clip/Hinh cac be/45 195.JPG</property>
    <property name="ttl">1</property>
    <property name="aspect_ratio">1</property>
    <property name="progressive">1</property>
    <property name="seekable">1</property>
    <property name="mlt_service">qimage</property>
    <property name="global_feed">1</property>
    <property name="xml">was here</property>
    <property name="shotcut:hash">dc1b94560367edd0a75740376077d6e2</property>
  </producer>
  <tractor id="tractor16" title="Anonymous Submission" global_feed="1" in="00:00:00.000" out="00:00:01.935">
    <property name="shotcut:transition">lumaMix</property>
    <track producer="producer89" in="00:00:02.502" out="00:00:04.436"/>
    <track producer="producer90" in="00:00:00.000" out="00:00:01.935"/>
    <transition id="transition32" out="00:00:01.935">
      <property name="a_track">0</property>
      <property name="b_track">1</property>
      <property name="factory">loader</property>
      <property name="mlt_service">luma</property>
    </transition>
    <transition id="transition33" out="00:00:01.935">
      <property name="a_track">0</property>
      <property name="b_track">1</property>
      <property name="mlt_service">mix</property>
      <property name="start">-1</property>
      <property name="accepts_blanks">1</property>
    </transition>
  </tractor>
  <producer id="producer91" title="Anonymous Submission" in="00:00:00.000" out="03:59:60.003">
    <property name="length">431738</property>
    <property name="eof">pause</property>
    <property name="resource">C:/Users/truong.lathanh/Downloads/NUMX/GiaLai/clip/Hinh cac be/_MG_7813.JPG</property>
    <property name="ttl">1</property>
    <property name="aspect_ratio">1</property>
    <property name="progressive">1</property>
    <property name="seekable">1</property>
    <property name="mlt_service">qimage</property>
    <property name="global_feed">1</property>
    <property name="xml">was here</property>
    <property name="shotcut:hash">dcc2a8bcf9689f19c58b7cac26855a96</property>
  </producer>
  <tractor id="tractor17" title="Anonymous Submission" global_feed="1" in="00:00:00.000" out="00:00:01.401">
    <property name="shotcut:transition">lumaMix</property>
    <track producer="producer90" in="00:00:03.035" out="00:00:04.436"/>
    <track producer="producer91" in="00:00:00.000" out="00:00:01.401"/>
    <transition id="transition34" out="00:00:01.401">
      <property name="a_track">0</property>
      <property name="b_track">1</property>
      <property name="factory">loader</property>
      <property name="mlt_service">luma</property>
    </transition>
    <transition id="transition35" out="00:00:01.401">
      <property name="a_track">0</property>
      <property name="b_track">1</property>
      <property name="mlt_service">mix</property>
      <property name="start">-1</property>
      <property name="accepts_blanks">1</property>
    </transition>
  </tractor>
  <producer id="producer92" title="Anonymous Submission" in="00:00:00.000" out="00:00:18.211">
    <property name="length">547</property>
    <property name="eof">pause</property>
    <property name="resource">C:/Users/truong.lathanh/Downloads/NUMX/GiaLai/clip/Chuong trinh chinh/20181222_114836_phan qua 2 - tro choi 1.mp4</property>
    <property name="audio_index">1</property>
    <property name="video_index">0</property>
    <property name="mute_on_pause">0</property>
    <property name="mlt_service">avformat-novalidate</property>
    <property name="seekable">1</property>
    <property name="aspect_ratio">1</property>
    <property name="global_feed">1</property>
    <property name="xml">was here</property>
    <property name="shotcut:hash">853ea170eebdf32fec62d40b3f414271</property>
    <property name="shotcut:caption">20181222_114836_phan qua 2 - tro choi 1.mp4</property>
    <property name="shotcut:detail">C:\Users\truong.lathanh\Downloads\NUMX\GiaLai\clip\Chuong trinh chinh\20181222_114836_phan qua 2 - tro choi 1.mp4</property>
  </producer>
  <tractor id="tractor18" title="Anonymous Submission" global_feed="1" in="00:00:00.000" out="00:00:01.834">
    <property name="shotcut:transition">lumaMix</property>
    <track producer="producer91" in="00:00:02.602" out="00:00:04.436"/>
    <track producer="producer92" in="00:00:14.342" out="00:00:16.176"/>
    <transition id="transition36" out="00:00:01.834">
      <property name="a_track">0</property>
      <property name="b_track">1</property>
      <property name="factory">loader</property>
      <property name="mlt_service">luma</property>
    </transition>
    <transition id="transition37" out="00:00:01.834">
      <property name="a_track">0</property>
      <property name="b_track">1</property>
      <property name="mlt_service">mix</property>
      <property name="start">-1</property>
      <property name="accepts_blanks">1</property>
    </transition>
  </tractor>
  <producer id="producer93" title="Anonymous Submission" in="00:00:00.000" out="03:59:60.003">
    <property name="length">431738</property>
    <property name="eof">pause</property>
    <property name="resource">C:/Users/truong.lathanh/Downloads/NUMX/GiaLai/clip/Hinh cac be/45 037.JPG</property>
    <property name="ttl">1</property>
    <property name="aspect_ratio">1</property>
    <property name="progressive">1</property>
    <property name="seekable">1</property>
    <property name="mlt_service">qimage</property>
    <property name="global_feed">1</property>
    <property name="xml">was here</property>
    <property name="shotcut:hash">78b3bb3baeede58a3add5defd53a0985</property>
  </producer>
  <producer id="producer94" title="Anonymous Submission" in="00:00:00.000" out="03:59:60.003">
    <property name="length">431738</property>
    <property name="eof">pause</property>
    <property name="resource">C:/Users/truong.lathanh/Downloads/NUMX/GiaLai/clip/Hinh cac be/45 042.JPG</property>
    <property name="ttl">1</property>
    <property name="aspect_ratio">1</property>
    <property name="progressive">1</property>
    <property name="seekable">1</property>
    <property name="mlt_service">qimage</property>
    <property name="global_feed">1</property>
    <property name="xml">was here</property>
    <property name="shotcut:hash">7a8c8fffb74590b2251aaf6ea0141fd9</property>
  </producer>
  <tractor id="tractor19" title="Anonymous Submission" global_feed="1" in="00:00:00.000" out="00:00:02.035">
    <property name="shotcut:transition">lumaMix</property>
    <track producer="producer93" in="00:00:02.401" out="00:00:04.436"/>
    <track producer="producer94" in="00:00:00.000" out="00:00:02.035"/>
    <transition id="transition38" out="00:00:02.035">
      <property name="a_track">0</property>
      <property name="b_track">1</property>
      <property name="factory">loader</property>
      <property name="mlt_service">luma</property>
    </transition>
    <transition id="transition39" out="00:00:02.035">
      <property name="a_track">0</property>
      <property name="b_track">1</property>
      <property name="mlt_service">mix</property>
      <property name="start">-1</property>
      <property name="accepts_blanks">1</property>
    </transition>
  </tractor>
  <producer id="producer95" title="Anonymous Submission" in="00:00:00.000" out="03:59:60.003">
    <property name="length">431738</property>
    <property name="eof">pause</property>
    <property name="resource">C:/Users/truong.lathanh/Downloads/NUMX/GiaLai/clip/Hinh cac be/45 055.JPG</property>
    <property name="ttl">1</property>
    <property name="aspect_ratio">1</property>
    <property name="progressive">1</property>
    <property name="seekable">1</property>
    <property name="mlt_service">qimage</property>
    <property name="global_feed">1</property>
    <property name="xml">was here</property>
    <property name="shotcut:hash">b2bfd9c75a7c65ba382fd50092f1b933</property>
  </producer>
  <tractor id="tractor20" title="Anonymous Submission" global_feed="1" in="00:00:00.000" out="00:00:01.534">
    <property name="shotcut:transition">lumaMix</property>
    <track producer="producer94" in="00:00:02.902" out="00:00:04.436"/>
    <track producer="producer95" in="00:00:00.000" out="00:00:01.534"/>
    <transition id="transition40" out="00:00:01.534">
      <property name="a_track">0</property>
      <property name="b_track">1</property>
      <property name="factory">loader</property>
      <property name="mlt_service">luma</property>
    </transition>
    <transition id="transition41" out="00:00:01.534">
      <property name="a_track">0</property>
      <property name="b_track">1</property>
      <property name="mlt_service">mix</property>
      <property name="start">-1</property>
      <property name="accepts_blanks">1</property>
    </transition>
  </tractor>
  <producer id="producer96" title="Anonymous Submission" in="00:00:00.000" out="03:59:60.003">
    <property name="length">431738</property>
    <property name="eof">pause</property>
    <property name="resource">C:/Users/truong.lathanh/Downloads/NUMX/GiaLai/clip/Hinh cac be/45 057.JPG</property>
    <property name="ttl">1</property>
    <property name="aspect_ratio">1</property>
    <property name="progressive">1</property>
    <property name="seekable">1</property>
    <property name="mlt_service">qimage</property>
    <property name="global_feed">1</property>
    <property name="xml">was here</property>
    <property name="shotcut:hash">362c3af2520964cf6fbe062b44535b6d</property>
  </producer>
  <tractor id="tractor21" title="Anonymous Submission" global_feed="1" in="00:00:00.000" out="00:00:01.734">
    <property name="shotcut:transition">lumaMix</property>
    <track producer="producer95" in="00:00:02.702" out="00:00:04.436"/>
    <track producer="producer96" in="00:00:00.000" out="00:00:01.734"/>
    <transition id="transition42" out="00:00:01.734">
      <property name="a_track">0</property>
      <property name="b_track">1</property>
      <property name="factory">loader</property>
      <property name="mlt_service">luma</property>
    </transition>
    <transition id="transition43" out="00:00:01.734">
      <property name="a_track">0</property>
      <property name="b_track">1</property>
      <property name="mlt_service">mix</property>
      <property name="start">-1</property>
      <property name="accepts_blanks">1</property>
    </transition>
  </tractor>
  <producer id="producer97" title="Anonymous Submission" in="00:00:00.000" out="00:00:25.049">
    <property name="length">752</property>
    <property name="eof">pause</property>
    <property name="resource">C:/Users/truong.lathanh/Downloads/NUMX/GiaLai/clip/Chuong trinh chinh/20181222_112214_phan qua 1.mp4</property>
    <property name="audio_index">1</property>
    <property name="video_index">0</property>
    <property name="mute_on_pause">0</property>
    <property name="mlt_service">avformat-novalidate</property>
    <property name="seekable">1</property>
    <property name="aspect_ratio">1</property>
    <property name="global_feed">1</property>
    <property name="xml">was here</property>
    <property name="shotcut:hash">21c0cb76c30592894eb0e027aefa9a1e</property>
    <property name="shotcut:caption">20181222_112214_phan qua 1.mp4</property>
    <property name="shotcut:detail">C:\Users\truong.lathanh\Downloads\NUMX\GiaLai\clip\Chuong trinh chinh\20181222_112214_phan qua 1.mp4</property>
  </producer>
  <tractor id="tractor22" title="Anonymous Submission" global_feed="1" in="00:00:00.000" out="00:00:01.434">
    <property name="shotcut:transition">lumaMix</property>
    <track producer="producer96" in="00:00:03.002" out="00:00:04.436"/>
    <track producer="producer97" in="00:00:00.000" out="00:00:01.434"/>
    <transition id="transition44" out="00:00:01.434">
      <property name="a_track">0</property>
      <property name="b_track">1</property>
      <property name="factory">loader</property>
      <property name="mlt_service">luma</property>
    </transition>
    <transition id="transition45" out="00:00:01.434">
      <property name="a_track">0</property>
      <property name="b_track">1</property>
      <property name="mlt_service">mix</property>
      <property name="start">-1</property>
      <property name="accepts_blanks">1</property>
    </transition>
  </tractor>
  <producer id="producer98" title="Anonymous Submission" in="00:00:00.000" out="00:00:25.049">
    <property name="length">752</property>
    <property name="eof">pause</property>
    <property name="resource">C:/Users/truong.lathanh/Downloads/NUMX/GiaLai/clip/Chuong trinh chinh/20181222_112214_phan qua 1.mp4</property>
    <property name="audio_index">1</property>
    <property name="video_index">0</property>
    <property name="mute_on_pause">0</property>
    <property name="mlt_service">avformat-novalidate</property>
    <property name="seekable">1</property>
    <property name="aspect_ratio">1</property>
    <property name="global_feed">1</property>
    <property name="xml">was here</property>
    <property name="shotcut:hash">21c0cb76c30592894eb0e027aefa9a1e</property>
    <property name="shotcut:caption">20181222_112214_phan qua 1.mp4</property>
    <property name="shotcut:detail">C:\Users\truong.lathanh\Downloads\NUMX\GiaLai\clip\Chuong trinh chinh\20181222_112214_phan qua 1.mp4</property>
  </producer>
  <producer id="producer99" title="Anonymous Submission" in="00:00:00.000" out="03:59:60.003">
    <property name="length">431738</property>
    <property name="eof">pause</property>
    <property name="resource">C:/Users/truong.lathanh/Downloads/NUMX/GiaLai/clip/phan qua/_MG_7793.JPG</property>
    <property name="ttl">1</property>
    <property name="aspect_ratio">1</property>
    <property name="progressive">1</property>
    <property name="seekable">1</property>
    <property name="mlt_service">qimage</property>
    <property name="global_feed">1</property>
    <property name="xml">was here</property>
    <property name="shotcut:hash">e8de14285758881aefd9328a813034a7</property>
  </producer>
  <tractor id="tractor23" title="Anonymous Submission" global_feed="1" in="00:00:00.000" out="00:00:01.701">
    <property name="shotcut:transition">lumaMix</property>
    <track producer="producer98" in="00:00:17.477" out="00:00:19.178"/>
    <track producer="producer99" in="00:00:00.000" out="00:00:01.701"/>
    <transition id="transition46" out="00:00:01.701">
      <property name="a_track">0</property>
      <property name="b_track">1</property>
      <property name="factory">loader</property>
      <property name="mlt_service">luma</property>
    </transition>
    <transition id="transition47" out="00:00:01.701">
      <property name="a_track">0</property>
      <property name="b_track">1</property>
      <property name="mlt_service">mix</property>
      <property name="start">-1</property>
      <property name="accepts_blanks">1</property>
    </transition>
  </tractor>
  <producer id="producer100" title="Anonymous Submission" in="00:00:00.000" out="03:59:60.003">
    <property name="length">431738</property>
    <property name="eof">pause</property>
    <property name="resource">C:/Users/truong.lathanh/Downloads/NUMX/GiaLai/clip/phan qua/_MG_7797.JPG</property>
    <property name="ttl">1</property>
    <property name="aspect_ratio">1</property>
    <property name="progressive">1</property>
    <property name="seekable">1</property>
    <property name="mlt_service">qimage</property>
    <property name="global_feed">1</property>
    <property name="xml">was here</property>
    <property name="shotcut:hash">8ae86376443f352dfa5a6bb94482b206</property>
  </producer>
  <tractor id="tractor24" title="Anonymous Submission" global_feed="1" in="00:00:00.000" out="00:00:01.568">
    <property name="shotcut:transition">lumaMix</property>
    <track producer="producer99" in="00:00:02.868" out="00:00:04.436"/>
    <track producer="producer100" in="00:00:00.000" out="00:00:01.568"/>
    <transition id="transition48" out="00:00:01.568">
      <property name="a_track">0</property>
      <property name="b_track">1</property>
      <property name="factory">loader</property>
      <property name="mlt_service">luma</property>
    </transition>
    <transition id="transition49" out="00:00:01.568">
      <property name="a_track">0</property>
      <property name="b_track">1</property>
      <property name="mlt_service">mix</property>
      <property name="start">-1</property>
      <property name="accepts_blanks">1</property>
    </transition>
  </tractor>
  <producer id="producer101" title="Anonymous Submission" in="00:00:00.000" out="00:00:07.805">
    <property name="length">235</property>
    <property name="eof">pause</property>
    <property name="resource">C:/Users/truong.lathanh/Downloads/NUMX/GiaLai/clip/Chuong trinh chinh/20181222_122309_phan qua 4.mp4</property>
    <property name="audio_index">1</property>
    <property name="video_index">0</property>
    <property name="mute_on_pause">0</property>
    <property name="mlt_service">avformat-novalidate</property>
    <property name="seekable">1</property>
    <property name="aspect_ratio">1</property>
    <property name="global_feed">1</property>
    <property name="xml">was here</property>
    <property name="shotcut:hash">74ba4bc4c9ff245d9cbd9597a7c72718</property>
    <property name="shotcut:caption">20181222_122309_phan qua 4.mp4</property>
    <property name="shotcut:detail">C:\Users\truong.lathanh\Downloads\NUMX\GiaLai\clip\Chuong trinh chinh\20181222_122309_phan qua 4.mp4</property>
  </producer>
  <tractor id="tractor25" title="Anonymous Submission" global_feed="1" in="00:00:00.000" out="00:00:01.434">
    <property name="shotcut:transition">lumaMix</property>
    <track producer="producer100" in="00:00:03.002" out="00:00:04.436"/>
    <track producer="producer101" in="00:00:00.000" out="00:00:01.434"/>
    <transition id="transition50" out="00:00:01.434">
      <property name="a_track">0</property>
      <property name="b_track">1</property>
      <property name="factory">loader</property>
      <property name="mlt_service">luma</property>
    </transition>
    <transition id="transition51" out="00:00:01.434">
      <property name="a_track">0</property>
      <property name="b_track">1</property>
      <property name="start">-1</property>
      <property name="accepts_blanks">1</property>
      <property name="mlt_service">mix</property>
    </transition>
  </tractor>
  <producer id="producer102" title="Anonymous Submission" in="00:00:00.000" out="03:59:60.003">
    <property name="length">431738</property>
    <property name="eof">pause</property>
    <property name="resource">C:/Users/truong.lathanh/Downloads/NUMX/GiaLai/clip/phan qua/IMG_0607.jpg</property>
    <property name="ttl">1</property>
    <property name="aspect_ratio">1</property>
    <property name="progressive">1</property>
    <property name="seekable">1</property>
    <property name="mlt_service">qimage</property>
    <property name="global_feed">1</property>
    <property name="xml">was here</property>
    <property name="shotcut:hash">42803c28265527b4fa726b4d33476b3c</property>
  </producer>
  <tractor id="tractor26" title="Anonymous Submission" global_feed="1" in="00:00:00.000" out="00:00:02.268">
    <property name="shotcut:transition">lumaMix</property>
    <track producer="producer101" in="00:00:05.537" out="00:00:07.805"/>
    <track producer="producer102" in="00:00:00.000" out="00:00:02.268"/>
    <transition id="transition52" out="00:00:02.268">
      <property name="a_track">0</property>
      <property name="b_track">1</property>
      <property name="factory">loader</property>
      <property name="mlt_service">luma</property>
    </transition>
    <transition id="transition53" out="00:00:02.268">
      <property name="a_track">0</property>
      <property name="b_track">1</property>
      <property name="start">-1</property>
      <property name="accepts_blanks">1</property>
      <property name="mlt_service">mix</property>
    </transition>
  </tractor>
  <producer id="producer103" title="Anonymous Submission" in="00:00:00.000" out="00:00:03.669">
    <property name="length">111</property>
    <property name="eof">pause</property>
    <property name="resource">C:/Users/truong.lathanh/Downloads/NUMX/GiaLai/clip/Chuong trinh chinh/20181222_154708_tu sach 1.mp4</property>
    <property name="audio_index">1</property>
    <property name="video_index">0</property>
    <property name="mute_on_pause">0</property>
    <property name="mlt_service">avformat-novalidate</property>
    <property name="seekable">1</property>
    <property name="aspect_ratio">1</property>
    <property name="global_feed">1</property>
    <property name="xml">was here</property>
    <property name="shotcut:hash">a4b530e21217d3048d8bac551117df19</property>
    <property name="shotcut:caption">20181222_154708_tu sach 1.mp4</property>
    <property name="shotcut:detail">C:\Users\truong.lathanh\Downloads\NUMX\GiaLai\clip\Chuong trinh chinh\20181222_154708_tu sach 1.mp4</property>
  </producer>
  <tractor id="tractor27" title="Anonymous Submission" global_feed="1" in="00:00:00.000" out="00:00:01.367">
    <property name="shotcut:transition">lumaMix</property>
    <track producer="producer102" in="00:00:03.069" out="00:00:04.436"/>
    <track producer="producer103" in="00:00:00.000" out="00:00:01.367"/>
    <transition id="transition54" out="00:00:01.367">
      <property name="a_track">0</property>
      <property name="b_track">1</property>
      <property name="factory">loader</property>
      <property name="mlt_service">luma</property>
    </transition>
    <transition id="transition55" out="00:00:01.367">
      <property name="a_track">0</property>
      <property name="b_track">1</property>
      <property name="start">-1</property>
      <property name="accepts_blanks">1</property>
      <property name="mlt_service">mix</property>
    </transition>
  </tractor>
  <producer id="producer104" title="Anonymous Submission" in="00:00:00.000" out="03:59:60.003">
    <property name="length">431738</property>
    <property name="eof">pause</property>
    <property name="resource">C:/Users/truong.lathanh/Downloads/NUMX/GiaLai/clip/Chuong trinh chinh/20181222_160118_tu sach 2.jpg</property>
    <property name="ttl">1</property>
    <property name="aspect_ratio">1</property>
    <property name="progressive">1</property>
    <property name="seekable">1</property>
    <property name="mlt_service">qimage</property>
    <property name="global_feed">1</property>
    <property name="xml">was here</property>
    <property name="shotcut:hash">8ef2b3e6132bd88fdd16ddf267bf132c</property>
  </producer>
  <producer id="producer105" title="Anonymous Submission" in="00:00:00.000" out="00:00:04.336">
    <property name="length">131</property>
    <property name="eof">pause</property>
    <property name="resource">C:/Users/truong.lathanh/Downloads/NUMX/GiaLai/clip/Chuong trinh chinh/20181222_114457_hau can 1.mp4</property>
    <property name="audio_index">1</property>
    <property name="video_index">0</property>
    <property name="mute_on_pause">0</property>
    <property name="mlt_service">avformat-novalidate</property>
    <property name="seekable">1</property>
    <property name="aspect_ratio">1</property>
    <property name="global_feed">1</property>
    <property name="xml">was here</property>
    <property name="shotcut:hash">23799972b3266dfa622b552276f138c7</property>
    <property name="shotcut:caption">20181222_114457_hau can 1.mp4</property>
    <property name="shotcut:detail">C:\Users\truong.lathanh\Downloads\NUMX\GiaLai\clip\Chuong trinh chinh\20181222_114457_hau can 1.mp4</property>
  </producer>
  <tractor id="tractor28" title="Anonymous Submission" global_feed="1" in="00:00:00.000" out="00:00:01.634">
    <property name="shotcut:transition">lumaMix</property>
    <track producer="producer104" in="00:00:02.802" out="00:00:04.436"/>
    <track producer="producer105" in="00:00:00.000" out="00:00:01.634"/>
    <transition id="transition56" out="00:00:01.634">
      <property name="a_track">0</property>
      <property name="b_track">1</property>
      <property name="factory">loader</property>
      <property name="mlt_service">luma</property>
    </transition>
    <transition id="transition57" out="00:00:01.634">
      <property name="a_track">0</property>
      <property name="b_track">1</property>
      <property name="start">-1</property>
      <property name="accepts_blanks">1</property>
      <property name="mlt_service">mix</property>
    </transition>
  </tractor>
  <producer id="producer106" title="Anonymous Submission" in="00:00:00.000" out="00:00:13.942">
    <property name="length">419</property>
    <property name="eof">pause</property>
    <property name="resource">C:/Users/truong.lathanh/Downloads/NUMX/GiaLai/clip/Chuong trinh chinh/20181222_114633_hau can 4.mp4</property>
    <property name="audio_index">1</property>
    <property name="video_index">0</property>
    <property name="mute_on_pause">0</property>
    <property name="mlt_service">avformat-novalidate</property>
    <property name="seekable">1</property>
    <property name="aspect_ratio">1</property>
    <property name="global_feed">1</property>
    <property name="xml">was here</property>
    <property name="shotcut:hash">51b566cfec794eb3c47ea61c78d7d510</property>
    <property name="shotcut:caption">20181222_114633_hau can 4.mp4</property>
    <property name="shotcut:detail">C:\Users\truong.lathanh\Downloads\NUMX\GiaLai\clip\Chuong trinh chinh\20181222_114633_hau can 4.mp4</property>
  </producer>
  <producer id="producer107" title="Anonymous Submission" in="00:00:00.000" out="00:00:13.942">
    <property name="length">419</property>
    <property name="eof">pause</property>
    <property name="resource">C:/Users/truong.lathanh/Downloads/NUMX/GiaLai/clip/Chuong trinh chinh/20181222_114633_hau can 4.mp4</property>
    <property name="audio_index">1</property>
    <property name="video_index">0</property>
    <property name="mute_on_pause">0</property>
    <property name="mlt_service">avformat-novalidate</property>
    <property name="seekable">1</property>
    <property name="aspect_ratio">1</property>
    <property name="global_feed">1</property>
    <property name="xml">was here</property>
    <property name="shotcut:hash">51b566cfec794eb3c47ea61c78d7d510</property>
    <property name="shotcut:caption">20181222_114633_hau can 4.mp4</property>
    <property name="shotcut:detail">C:\Users\truong.lathanh\Downloads\NUMX\GiaLai\clip\Chuong trinh chinh\20181222_114633_hau can 4.mp4</property>
  </producer>
  <producer id="producer108" title="Anonymous Submission" in="00:00:00.000" out="00:00:03.602">
    <property name="length">109</property>
    <property name="eof">pause</property>
    <property name="resource">C:/Users/truong.lathanh/Downloads/NUMX/GiaLai/clip/Chuong trinh chinh/20181222_114608_hau can 3.mp4</property>
    <property name="audio_index">1</property>
    <property name="video_index">0</property>
    <property name="mute_on_pause">0</property>
    <property name="mlt_service">avformat-novalidate</property>
    <property name="seekable">1</property>
    <property name="aspect_ratio">1</property>
    <property name="global_feed">1</property>
    <property name="xml">was here</property>
    <property name="shotcut:hash">dc9801bf3c4f2db9321fd32120f9a570</property>
    <property name="shotcut:caption">20181222_114608_hau can 3.mp4</property>
    <property name="shotcut:detail">C:\Users\truong.lathanh\Downloads\NUMX\GiaLai\clip\Chuong trinh chinh\20181222_114608_hau can 3.mp4</property>
  </producer>
  <producer id="producer109" title="Anonymous Submission" in="00:00:00.000" out="00:00:20.179">
    <property name="length">606</property>
    <property name="eof">pause</property>
    <property name="resource">C:/Users/truong.lathanh/Downloads/NUMX/GiaLai/clip/Chuong trinh chinh/20181222_114527_hau can 2.mp4</property>
    <property name="audio_index">1</property>
    <property name="video_index">0</property>
    <property name="mute_on_pause">0</property>
    <property name="mlt_service">avformat-novalidate</property>
    <property name="seekable">1</property>
    <property name="aspect_ratio">1</property>
    <property name="global_feed">1</property>
    <property name="xml">was here</property>
    <property name="shotcut:hash">e062998d3bd289800ace7afb48b0b4d5</property>
    <property name="shotcut:caption">20181222_114527_hau can 2.mp4</property>
    <property name="shotcut:detail">C:\Users\truong.lathanh\Downloads\NUMX\GiaLai\clip\Chuong trinh chinh\20181222_114527_hau can 2.mp4</property>
  </producer>
  <producer id="producer110" title="Anonymous Submission" in="00:00:00.000" out="00:00:03.736">
    <property name="length">113</property>
    <property name="eof">pause</property>
    <property name="resource">C:/Users/truong.lathanh/Downloads/NUMX/GiaLai/clip/Chuong trinh chinh/20181222_114744_hau can 5.mp4</property>
    <property name="audio_index">1</property>
    <property name="video_index">0</property>
    <property name="mute_on_pause">0</property>
    <property name="mlt_service">avformat-novalidate</property>
    <property name="seekable">1</property>
    <property name="aspect_ratio">1</property>
    <property name="global_feed">1</property>
    <property name="xml">was here</property>
    <property name="shotcut:hash">187f0b16795fb215367f11074f121a91</property>
    <property name="shotcut:caption">20181222_114744_hau can 5.mp4</property>
    <property name="shotcut:detail">C:\Users\truong.lathanh\Downloads\NUMX\GiaLai\clip\Chuong trinh chinh\20181222_114744_hau can 5.mp4</property>
  </producer>
  <producer id="producer111" title="Anonymous Submission" in="00:00:00.000" out="00:00:06.170">
    <property name="length">186</property>
    <property name="eof">pause</property>
    <property name="resource">C:/Users/truong.lathanh/Downloads/NUMX/GiaLai/clip/Chuong trinh chinh/20181222_114810_hau can 6.mp4</property>
    <property name="audio_index">1</property>
    <property name="video_index">0</property>
    <property name="mute_on_pause">0</property>
    <property name="mlt_service">avformat-novalidate</property>
    <property name="seekable">1</property>
    <property name="aspect_ratio">1</property>
    <property name="global_feed">1</property>
    <property name="xml">was here</property>
    <property name="shotcut:hash">e7f8404916bc3cc9ab6d212ac4479e04</property>
    <property name="shotcut:caption">20181222_114810_hau can 6.mp4</property>
    <property name="shotcut:detail">C:\Users\truong.lathanh\Downloads\NUMX\GiaLai\clip\Chuong trinh chinh\20181222_114810_hau can 6.mp4</property>
  </producer>
  <producer id="producer112" title="Anonymous Submission" in="00:00:00.000" out="03:59:60.003">
    <property name="length">431738</property>
    <property name="eof">pause</property>
    <property name="resource">C:/Users/truong.lathanh/Downloads/NUMX/GiaLai/clip/hau can/45 030.JPG</property>
    <property name="ttl">1</property>
    <property name="aspect_ratio">1</property>
    <property name="progressive">1</property>
    <property name="seekable">1</property>
    <property name="mlt_service">qimage</property>
    <property name="global_feed">1</property>
    <property name="xml">was here</property>
    <property name="shotcut:hash">db1dedeba4200a67b6ed8627a2280442</property>
  </producer>
  <tractor id="tractor29" title="Anonymous Submission" global_feed="1" in="00:00:00.000" out="00:00:01.634">
    <property name="shotcut:transition">lumaMix</property>
    <track producer="producer111" in="00:00:04.536" out="00:00:06.170"/>
    <track producer="producer112" in="00:00:00.000" out="00:00:01.634"/>
    <transition id="transition58" out="00:00:01.634">
      <property name="a_track">0</property>
      <property name="b_track">1</property>
      <property name="factory">loader</property>
      <property name="mlt_service">luma</property>
    </transition>
    <transition id="transition59" out="00:00:01.634">
      <property name="a_track">0</property>
      <property name="b_track">1</property>
      <property name="start">-1</property>
      <property name="accepts_blanks">1</property>
      <property name="mlt_service">mix</property>
    </transition>
  </tractor>
  <producer id="producer113" title="Anonymous Submission" in="00:00:00.000" out="03:59:60.003">
    <property name="length">431738</property>
    <property name="eof">pause</property>
    <property name="resource">C:/Users/truong.lathanh/Downloads/NUMX/GiaLai/clip/hau can/IMG_0660.jpg</property>
    <property name="ttl">1</property>
    <property name="aspect_ratio">1</property>
    <property name="progressive">1</property>
    <property name="seekable">1</property>
    <property name="mlt_service">qimage</property>
    <property name="global_feed">1</property>
    <property name="xml">was here</property>
    <property name="shotcut:hash">28602c20ebbd4353f56b9c6fb0fd35e2</property>
  </producer>
  <tractor id="tractor30" title="Anonymous Submission" global_feed="1" in="00:00:00.000" out="00:00:01.801">
    <property name="shotcut:transition">lumaMix</property>
    <track producer="producer112" in="00:00:02.635" out="00:00:04.436"/>
    <track producer="producer113" in="00:00:00.000" out="00:00:01.801"/>
    <transition id="transition60" out="00:00:01.801">
      <property name="a_track">0</property>
      <property name="b_track">1</property>
      <property name="factory">loader</property>
      <property name="mlt_service">luma</property>
    </transition>
    <transition id="transition61" out="00:00:01.801">
      <property name="a_track">0</property>
      <property name="b_track">1</property>
      <property name="start">-1</property>
      <property name="accepts_blanks">1</property>
      <property name="mlt_service">mix</property>
    </transition>
  </tractor>
  <producer id="producer114" title="Anonymous Submission" in="00:00:00.000" out="00:00:16.944">
    <property name="length">509</property>
    <property name="eof">pause</property>
    <property name="resource">C:/Users/truong.lathanh/Downloads/NUMX/GiaLai/clip/Chuong trinh chinh/20181222_132023_an trua.mp4</property>
    <property name="audio_index">1</property>
    <property name="video_index">0</property>
    <property name="mute_on_pause">0</property>
    <property name="mlt_service">avformat-novalidate</property>
    <property name="seekable">1</property>
    <property name="aspect_ratio">1</property>
    <property name="global_feed">1</property>
    <property name="xml">was here</property>
    <property name="shotcut:hash">0988689ee41aea1864168dd5084388ab</property>
    <property name="shotcut:caption">20181222_132023_an trua.mp4</property>
    <property name="shotcut:detail">C:\Users\truong.lathanh\Downloads\NUMX\GiaLai\clip\Chuong trinh chinh\20181222_132023_an trua.mp4</property>
  </producer>
  <tractor id="tractor31" title="Anonymous Submission" global_feed="1" in="00:00:00.000" out="00:00:02.135">
    <property name="shotcut:transition">lumaMix</property>
    <track producer="producer113" in="00:00:05.003" out="00:00:07.138"/>
    <track producer="producer114" in="00:00:00.000" out="00:00:02.135"/>
    <transition id="transition62" out="00:00:02.135">
      <property name="a_track">0</property>
      <property name="b_track">1</property>
      <property name="factory">loader</property>
      <property name="mlt_service">luma</property>
    </transition>
    <transition id="transition63" out="00:00:02.135">
      <property name="a_track">0</property>
      <property name="b_track">1</property>
      <property name="start">-1</property>
      <property name="accepts_blanks">1</property>
      <property name="mlt_service">mix</property>
    </transition>
  </tractor>
  <producer id="producer115" title="Anonymous Submission" in="00:00:00.000" out="00:00:18.445">
    <property name="length">554</property>
    <property name="eof">pause</property>
    <property name="resource">C:/Users/truong.lathanh/Downloads/NUMX/GiaLai/clip/Chuong trinh chinh/20181222_164355_tro choi 7 - van dong.mp4</property>
    <property name="audio_index">1</property>
    <property name="video_index">0</property>
    <property name="mute_on_pause">0</property>
    <property name="mlt_service">avformat-novalidate</property>
    <property name="seekable">1</property>
    <property name="aspect_ratio">1</property>
    <property name="global_feed">1</property>
    <property name="xml">was here</property>
    <property name="shotcut:hash">4e63319756caaede81cdaf4c4e50c265</property>
    <property name="shotcut:caption">20181222_164355_tro choi 7 - van dong.mp4</property>
    <property name="shotcut:detail">C:\Users\truong.lathanh\Downloads\NUMX\GiaLai\clip\Chuong trinh chinh\20181222_164355_tro choi 7 - van dong.mp4</property>
  </producer>
  <tractor id="tractor32" title="Anonymous Submission" global_feed="1" in="00:00:00.000" out="00:00:02.935">
    <property name="shotcut:transition">lumaMix</property>
    <track producer="producer114" in="00:00:14.008" out="00:00:16.944"/>
    <track producer="producer115" in="00:00:00.000" out="00:00:02.935"/>
    <transition id="transition64" out="00:00:02.935">
      <property name="a_track">0</property>
      <property name="b_track">1</property>
      <property name="factory">loader</property>
      <property name="mlt_service">luma</property>
    </transition>
    <transition id="transition65" out="00:00:02.935">
      <property name="a_track">0</property>
      <property name="b_track">1</property>
      <property name="start">-1</property>
      <property name="accepts_blanks">1</property>
      <property name="mlt_service">mix</property>
    </transition>
  </tractor>
  <producer id="producer116" title="Anonymous Submission" in="00:00:00.000" out="00:00:03.535">
    <property name="length">107</property>
    <property name="eof">pause</property>
    <property name="resource">C:/Users/truong.lathanh/Downloads/NUMX/GiaLai/clip/Chuong trinh chinh/20181222_164115_tro choi 5 - to mau.mp4</property>
    <property name="audio_index">1</property>
    <property name="video_index">0</property>
    <property name="mute_on_pause">0</property>
    <property name="mlt_service">avformat-novalidate</property>
    <property name="seekable">1</property>
    <property name="aspect_ratio">1</property>
    <property name="global_feed">1</property>
    <property name="xml">was here</property>
    <property name="shotcut:hash">4bda257f637588384bbac7850d87b8e9</property>
    <property name="shotcut:caption">20181222_164115_tro choi 5 - to mau.mp4</property>
    <property name="shotcut:detail">C:\Users\truong.lathanh\Downloads\NUMX\GiaLai\clip\Chuong trinh chinh\20181222_164115_tro choi 5 - to mau.mp4</property>
  </producer>
  <tractor id="tractor33" title="Anonymous Submission" global_feed="1" in="00:00:00.000" out="00:00:01.801">
    <property name="shotcut:transition">lumaMix</property>
    <track producer="producer115" in="00:00:16.643" out="00:00:18.445"/>
    <track producer="producer116" in="00:00:00.000" out="00:00:01.801"/>
    <transition id="transition66" out="00:00:01.801">
      <property name="a_track">0</property>
      <property name="b_track">1</property>
      <property name="factory">loader</property>
      <property name="mlt_service">luma</property>
    </transition>
    <transition id="transition67" out="00:00:01.801">
      <property name="a_track">0</property>
      <property name="b_track">1</property>
      <property name="start">-1</property>
      <property name="accepts_blanks">1</property>
      <property name="mlt_service">mix</property>
    </transition>
  </tractor>
  <producer id="producer117" title="Anonymous Submission" in="00:00:00.000" out="00:00:11.240">
    <property name="length">338</property>
    <property name="eof">pause</property>
    <property name="resource">C:/Users/truong.lathanh/Downloads/NUMX/GiaLai/clip/Chuong trinh chinh/20181222_163845_tro choi 4 - to mau.mp4</property>
    <property name="audio_index">1</property>
    <property name="video_index">0</property>
    <property name="mute_on_pause">0</property>
    <property name="mlt_service">avformat-novalidate</property>
    <property name="seekable">1</property>
    <property name="aspect_ratio">1</property>
    <property name="global_feed">1</property>
    <property name="xml">was here</property>
    <property name="shotcut:hash">ebd322a4bc5c59b0dc75a208a5ffdeda</property>
    <property name="shotcut:caption">20181222_163845_tro choi 4 - to mau.mp4</property>
    <property name="shotcut:detail">C:\Users\truong.lathanh\Downloads\NUMX\GiaLai\clip\Chuong trinh chinh\20181222_163845_tro choi 4 - to mau.mp4</property>
  </producer>
  <producer id="producer118" title="Anonymous Submission" in="00:00:00.000" out="00:00:04.303">
    <property name="length">130</property>
    <property name="eof">pause</property>
    <property name="resource">C:/Users/truong.lathanh/Downloads/NUMX/GiaLai/clip/Chuong trinh chinh/20181222_164146_tro choi 6 - to mau.mp4</property>
    <property name="audio_index">1</property>
    <property name="video_index">0</property>
    <property name="mute_on_pause">0</property>
    <property name="mlt_service">avformat-novalidate</property>
    <property name="seekable">1</property>
    <property name="aspect_ratio">1</property>
    <property name="global_feed">1</property>
    <property name="xml">was here</property>
    <property name="shotcut:hash">094f2fbb50ddcbfd8148a41e08dc7a16</property>
    <property name="shotcut:caption">20181222_164146_tro choi 6 - to mau.mp4</property>
    <property name="shotcut:detail">C:\Users\truong.lathanh\Downloads\NUMX\GiaLai\clip\Chuong trinh chinh\20181222_164146_tro choi 6 - to mau.mp4</property>
  </producer>
  <producer id="producer119" title="Anonymous Submission" in="00:00:00.000" out="03:59:60.003">
    <property name="length">431738</property>
    <property name="eof">pause</property>
    <property name="resource">C:/Users/truong.lathanh/Downloads/NUMX/GiaLai/clip/tro choi/_UAN0454.JPG</property>
    <property name="ttl">1</property>
    <property name="aspect_ratio">1</property>
    <property name="progressive">1</property>
    <property name="seekable">1</property>
    <property name="mlt_service">qimage</property>
    <property name="global_feed">1</property>
    <property name="xml">was here</property>
    <property name="shotcut:hash">cc5436829e1a9a50c6756ab86a49c3d8</property>
  </producer>
  <tractor id="tractor34" title="Anonymous Submission" global_feed="1" in="00:00:00.000" out="00:00:01.801">
    <property name="shotcut:transition">lumaMix</property>
    <track producer="producer118" in="00:00:02.502" out="00:00:04.303"/>
    <track producer="producer119" in="00:00:00.000" out="00:00:01.801"/>
    <transition id="transition68" out="00:00:01.801">
      <property name="a_track">0</property>
      <property name="b_track">1</property>
      <property name="factory">loader</property>
      <property name="mlt_service">luma</property>
    </transition>
    <transition id="transition69" out="00:00:01.801">
      <property name="a_track">0</property>
      <property name="b_track">1</property>
      <property name="start">-1</property>
      <property name="accepts_blanks">1</property>
      <property name="mlt_service">mix</property>
    </transition>
  </tractor>
  <producer id="producer120" title="Anonymous Submission" in="00:00:00.000" out="03:59:60.003">
    <property name="length">431738</property>
    <property name="eof">pause</property>
    <property name="resource">C:/Users/truong.lathanh/Downloads/NUMX/GiaLai/clip/tro choi/_UAN0465.JPG</property>
    <property name="ttl">1</property>
    <property name="aspect_ratio">1</property>
    <property name="progressive">1</property>
    <property name="seekable">1</property>
    <property name="mlt_service">qimage</property>
    <property name="global_feed">1</property>
    <property name="xml">was here</property>
    <property name="shotcut:hash">7bf471c4eaeb129718f877f992de79ea</property>
  </producer>
  <producer id="producer121" title="Anonymous Submission" in="00:00:00.000" out="00:00:08.105">
    <property name="length">244</property>
    <property name="eof">pause</property>
    <property name="resource">C:/Users/truong.lathanh/Downloads/NUMX/GiaLai/clip/Chuong trinh chinh/20181222_142213_chuong trinh 1.mp4</property>
    <property name="audio_index">1</property>
    <property name="video_index">0</property>
    <property name="mute_on_pause">0</property>
    <property name="mlt_service">avformat-novalidate</property>
    <property name="seekable">1</property>
    <property name="aspect_ratio">1</property>
    <property name="global_feed">1</property>
    <property name="xml">was here</property>
    <property name="shotcut:hash">51a641060c5c7171e8c726020162062d</property>
    <property name="shotcut:caption">20181222_142213_chuong trinh 1.mp4</property>
    <property name="shotcut:detail">C:\Users\truong.lathanh\Downloads\NUMX\GiaLai\clip\Chuong trinh chinh\20181222_142213_chuong trinh 1.mp4</property>
  </producer>
  <tractor id="tractor35" title="Anonymous Submission" global_feed="1" in="00:00:00.000" out="00:00:01.534">
    <property name="shotcut:transition">lumaMix</property>
    <track producer="producer120" in="00:00:02.902" out="00:00:04.436"/>
    <track producer="producer121" in="00:00:00.000" out="00:00:01.534"/>
    <transition id="transition70" out="00:00:01.534">
      <property name="a_track">0</property>
      <property name="b_track">1</property>
      <property name="factory">loader</property>
      <property name="mlt_service">luma</property>
    </transition>
    <transition id="transition71" out="00:00:01.534">
      <property name="a_track">0</property>
      <property name="b_track">1</property>
      <property name="start">-1</property>
      <property name="accepts_blanks">1</property>
      <property name="mlt_service">mix</property>
    </transition>
  </tractor>
  <producer id="producer122" title="Anonymous Submission" in="00:00:00.000" out="03:59:60.003">
    <property name="length">431738</property>
    <property name="eof">pause</property>
    <property name="resource">C:/Users/truong.lathanh/Downloads/NUMX/GiaLai/clip/Hinh cac be/IMG_0631.jpg</property>
    <property name="ttl">1</property>
    <property name="aspect_ratio">1</property>
    <property name="progressive">1</property>
    <property name="seekable">1</property>
    <property name="mlt_service">qimage</property>
    <property name="global_feed">1</property>
    <property name="xml">was here</property>
    <property name="shotcut:hash">456045251c3a9c48bede1e1153455b4a</property>
  </producer>
  <playlist id="playlist0">
    <property name="shotcut:video">1</property>
    <property name="shotcut:name">intro video</property>
    <entry producer="producer59" in="00:00:00.000" out="00:00:07.038"/>
    <entry producer="tractor0" in="00:00:00.000" out="00:00:00.901"/>
    <entry producer="producer61" in="00:00:00.934" out="00:00:05.303"/>
    <entry producer="tractor1" in="00:00:00.000" out="00:00:00.600"/>
    <entry producer="producer62" in="00:00:00.634" out="00:00:03.235"/>
    <entry producer="tractor2" in="00:00:00.000" out="00:00:00.467"/>
    <entry producer="producer64" in="00:00:00.634" out="00:00:02.635"/>
    <entry producer="tractor3" in="00:00:00.000" out="00:00:00.534"/>
    <entry producer="producer66" in="00:00:00.567" out="00:00:04.936"/>
    <entry producer="producer67" in="00:00:00.000" out="00:00:28.050"/>
    <entry producer="producer68" in="00:00:00.000" out="00:00:00.867"/>
    <entry producer="producer69" in="00:00:00.300" out="00:00:01.301"/>
    <entry producer="producer70" in="00:00:03.902" out="00:00:05.370"/>
    <entry producer="producer71" in="00:00:01.801" out="00:00:02.268"/>
    <entry producer="producer72" in="00:00:06.871" out="00:00:09.239"/>
    <entry producer="producer73" in="00:00:00.000" out="00:00:04.870"/>
    <entry producer="tractor4" in="00:00:00.000" out="00:00:00.634"/>
    <entry producer="producer74" in="00:00:03.736" out="00:00:10.606"/>
    <entry producer="tractor5" in="00:00:00.000" out="00:00:01.734"/>
    <entry producer="producer75" in="00:00:01.768" out="00:00:02.702"/>
    <entry producer="tractor6" in="00:00:00.000" out="00:00:01.701"/>
    <entry producer="producer76" in="00:00:01.734" out="00:00:02.602"/>
    <entry producer="tractor7" in="00:00:00.000" out="00:00:01.801"/>
    <entry producer="producer77" in="00:00:01.834" out="00:00:02.635"/>
    <entry producer="tractor8" in="00:00:00.000" out="00:00:01.768"/>
    <entry producer="producer78" in="00:00:01.801" out="00:00:02.735"/>
    <entry producer="tractor9" in="00:00:00.000" out="00:00:01.668"/>
    <entry producer="producer79" in="00:00:01.701" out="00:00:02.602"/>
    <entry producer="tractor10" in="00:00:00.000" out="00:00:01.801"/>
    <entry producer="producer80" in="00:00:01.834" out="00:00:04.636"/>
    <entry producer="producer81" in="00:00:00.000" out="00:00:06.270"/>
    <entry producer="tractor11" in="00:00:00.000" out="00:00:01.367"/>
    <entry producer="producer82" in="00:00:01.401" out="00:00:02.902"/>
    <entry producer="producer83" in="00:00:00.000" out="00:00:02.368"/>
    <entry producer="tractor12" in="00:00:00.000" out="00:00:02.035"/>
    <entry producer="producer84" in="00:00:02.068" out="00:00:02.868"/>
    <entry producer="tractor13" in="00:00:00.000" out="00:00:01.534"/>
    <entry producer="producer85" in="00:00:01.568" out="00:00:02.735"/>
    <entry producer="tractor14" in="00:00:00.000" out="00:00:01.668"/>
    <entry producer="producer86" in="00:00:01.701" out="00:00:04.436"/>
    <entry producer="producer87" in="00:00:00.000" out="00:00:01.601"/>
    <entry producer="tractor15" in="00:00:00.000" out="00:00:01.434"/>
    <entry producer="producer88" in="00:00:01.468" out="00:00:02.935"/>
    <entry producer="producer89" in="00:00:00.000" out="00:00:02.468"/>
    <entry producer="tractor16" in="00:00:00.000" out="00:00:01.935"/>
    <entry producer="producer90" in="00:00:01.968" out="00:00:03.002"/>
    <entry producer="tractor17" in="00:00:00.000" out="00:00:01.401"/>
    <entry producer="producer91" in="00:00:01.434" out="00:00:02.568"/>
    <entry producer="tractor18" in="00:00:00.000" out="00:00:01.834"/>
    <entry producer="producer92" in="00:00:16.210" out="00:00:18.211"/>
    <entry producer="producer93" in="00:00:00.000" out="00:00:02.368"/>
    <entry producer="tractor19" in="00:00:00.000" out="00:00:02.035"/>
    <entry producer="producer94" in="00:00:02.068" out="00:00:02.868"/>
    <entry producer="tractor20" in="00:00:00.000" out="00:00:01.534"/>
    <entry producer="producer95" in="00:00:01.568" out="00:00:02.668"/>
    <entry producer="tractor21" in="00:00:00.000" out="00:00:01.734"/>
    <entry producer="producer96" in="00:00:01.768" out="00:00:02.968"/>
    <entry producer="tractor22" in="00:00:00.000" out="00:00:01.434"/>
    <entry producer="producer98" in="00:00:01.468" out="00:00:17.444"/>
    <entry producer="tractor23" in="00:00:00.000" out="00:00:01.701"/>
    <entry producer="producer99" in="00:00:01.734" out="00:00:02.835"/>
    <entry producer="tractor24" in="00:00:00.000" out="00:00:01.568"/>
    <entry producer="producer100" in="00:00:01.601" out="00:00:02.968"/>
    <entry producer="tractor25" in="00:00:00.000" out="00:00:01.434"/>
    <entry producer="producer101" in="00:00:01.468" out="00:00:05.503"/>
    <entry producer="tractor26" in="00:00:00.000" out="00:00:02.268"/>
    <entry producer="producer102" in="00:00:02.301" out="00:00:03.035"/>
    <entry producer="tractor27" in="00:00:00.000" out="00:00:01.367"/>
    <entry producer="producer103" in="00:00:01.401" out="00:00:03.669"/>
    <entry producer="producer104" in="00:00:00.000" out="00:00:02.768"/>
    <entry producer="tractor28" in="00:00:00.000" out="00:00:01.634"/>
    <entry producer="producer105" in="00:00:01.668" out="00:00:04.336"/>
    <entry producer="producer106" in="00:00:00.000" out="00:00:02.902"/>
    <entry producer="producer107" in="00:00:06.637" out="00:00:13.942"/>
    <entry producer="producer108" in="00:00:00.000" out="00:00:03.602"/>
    <entry producer="producer109" in="00:00:00.000" out="00:00:17.544"/>
    <entry producer="producer110" in="00:00:00.000" out="00:00:03.736"/>
    <entry producer="producer111" in="00:00:00.000" out="00:00:04.503"/>
    <entry producer="tractor29" in="00:00:00.000" out="00:00:01.634"/>
    <entry producer="producer112" in="00:00:01.668" out="00:00:02.602"/>
    <entry producer="tractor30" in="00:00:00.000" out="00:00:01.801"/>
    <entry producer="producer113" in="00:00:01.834" out="00:00:04.970"/>
    <entry producer="tractor31" in="00:00:00.000" out="00:00:02.135"/>
    <entry producer="producer114" in="00:00:02.168" out="00:00:13.975"/>
    <entry producer="tractor32" in="00:00:00.000" out="00:00:02.935"/>
    <entry producer="producer115" in="00:00:02.968" out="00:00:16.610"/>
    <entry producer="tractor33" in="00:00:00.000" out="00:00:01.801"/>
    <entry producer="producer116" in="00:00:01.834" out="00:00:03.535"/>
    <entry producer="producer117" in="00:00:00.000" out="00:00:08.205"/>
    <entry producer="producer118" in="00:00:00.000" out="00:00:02.468"/>
    <entry producer="tractor34" in="00:00:00.000" out="00:00:01.801"/>
    <entry producer="producer119" in="00:00:01.834" out="00:00:04.436"/>
    <entry producer="producer120" in="00:00:00.000" out="00:00:02.868"/>
    <entry producer="tractor35" in="00:00:00.000" out="00:00:01.534"/>
    <entry producer="producer121" in="00:00:01.568" out="00:00:08.105"/>
    <blank length="00:00:32.787"/>
    <entry producer="producer122" in="00:00:00.000" out="00:00:04.436"/>
  </playlist>
  <producer id="producer123" title="Anonymous Submission" in="00:00:00.000" out="03:59:60.003">
    <property name="length">431738</property>
    <property name="eof">pause</property>
    <property name="resource">C:/Users/truong.lathanh/Downloads/NUMX/GiaLai/utils/black.png</property>
    <property name="ttl">1</property>
    <property name="aspect_ratio">1</property>
    <property name="progressive">1</property>
    <property name="seekable">1</property>
    <property name="mlt_service">qimage</property>
    <property name="global_feed">1</property>
    <property name="xml">was here</property>
    <property name="shotcut:hash">b39bb6079691283ecb75ff439d39b34d</property>
    <filter id="filter4" out="00:00:03.969">
      <property name="background">colour:0</property>
      <property name="mlt_service">affine</property>
      <property name="shotcut:filter">affineSizePosition</property>
      <property name="transition.fill">1</property>
      <property name="transition.distort">0</property>
      <property name="transition.rect">00:00:00.000=0 360 1280 720 1;00:00:03.969=0 730 1280 720 1</property>
      <property name="transition.valign">top</property>
      <property name="transition.halign">left</property>
      <property name="shotcut:animIn">00:00:00.000</property>
      <property name="shotcut:animOut">00:00:00.000</property>
      <property name="transition.threads">0</property>
    </filter>
  </producer>
  <playlist id="playlist1">
    <property name="shotcut:video">1</property>
    <property name="shotcut:name">V2</property>
    <entry producer="producer123" in="00:00:00.000" out="00:00:03.969"/>
  </playlist>
  <producer id="producer124" title="Anonymous Submission" in="00:00:00.000" out="03:59:60.003">
    <property name="length">431738</property>
    <property name="eof">pause</property>
    <property name="resource">C:/Users/truong.lathanh/Downloads/NUMX/GiaLai/utils/black.png</property>
    <property name="ttl">1</property>
    <property name="aspect_ratio">1</property>
    <property name="progressive">1</property>
    <property name="seekable">1</property>
    <property name="mlt_service">qimage</property>
    <property name="global_feed">1</property>
    <property name="xml">was here</property>
    <property name="shotcut:hash">b39bb6079691283ecb75ff439d39b34d</property>
    <filter id="filter5" out="00:00:03.969">
      <property name="background">colour:0</property>
      <property name="mlt_service">affine</property>
      <property name="shotcut:filter">affineSizePosition</property>
      <property name="transition.fill">1</property>
      <property name="transition.distort">0</property>
      <property name="transition.rect">00:00:00.000=0 -360 1280 720 1;00:00:03.969=0 -730 1280 720 1</property>
      <property name="transition.valign">top</property>
      <property name="transition.halign">left</property>
      <property name="shotcut:animIn">00:00:00.000</property>
      <property name="shotcut:animOut">00:00:00.000</property>
      <property name="transition.threads">0</property>
    </filter>
  </producer>
  <playlist id="playlist2">
    <property name="shotcut:video">1</property>
    <property name="shotcut:name">V3</property>
    <entry producer="producer124" in="00:00:00.000" out="00:00:03.969"/>
  </playlist>
  <tractor id="tractor36" title="Shotcut version 18.12.23" global_feed="1" in="00:00:00.000" out="00:05:25.582">
    <property name="shotcut">1</property>
    <property name="shotcut:projectAudioChannels">2</property>
    <property name="shotcut:projectFolder">1</property>
    <property name="shotcut:scaleFactor">1.03564</property>
    <track producer="background"/>
    <track producer="playlist0"/>
    <track producer="playlist1"/>
    <track producer="playlist2"/>
    <transition id="transition72">
      <property name="a_track">1</property>
      <property name="b_track">2</property>
      <property name="version">0.9</property>
      <property name="mlt_service">frei0r.cairoblend</property>
      <property name="disable">1</property>
    </transition>
    <transition id="transition73">
      <property name="a_track">1</property>
      <property name="b_track">2</property>
      <property name="version">0.9</property>
      <property name="mlt_service">frei0r.cairoblend</property>
      <property name="disable">0</property>
    </transition>
    <transition id="transition74">
      <property name="a_track">0</property>
      <property name="b_track">1</property>
      <property name="mlt_service">mix</property>
      <property name="always_active">1</property>
      <property name="sum">1</property>
    </transition>
    <transition id="transition75">
      <property name="a_track">0</property>
      <property name="b_track">2</property>
      <property name="mlt_service">mix</property>
      <property name="always_active">1</property>
      <property name="sum">1</property>
    </transition>
    <transition id="transition76">
      <property name="a_track">1</property>
      <property name="b_track">2</property>
      <property name="version">0.9</property>
      <property name="mlt_service">frei0r.cairoblend</property>
      <property name="disable">0</property>
    </transition>
    <transition id="transition77">
      <property name="a_track">0</property>
      <property name="b_track">3</property>
      <property name="mlt_service">mix</property>
      <property name="always_active">1</property>
      <property name="sum">1</property>
    </transition>
    <transition id="transition78">
      <property name="a_track">1</property>
      <property name="b_track">3</property>
      <property name="version">0.9</property>
      <property name="mlt_service">frei0r.cairoblend</property>
      <property name="disable">0</property>
    </transition>
  </tractor>
</mlt>
